<?xml version="1.0" standalone="no"?>
<!DOCTYPE svg PUBLIC "-//W3C//DTD SVG 1.1//EN" "http://www.w3.org/Graphics/SVG/1.1/DTD/svg11.dtd" >
<svg xmlns="http://www.w3.org/2000/svg">
<metadata>Generated by IcoMoon</metadata>
<defs>
<font id="icon-full-height" horiz-adv-x="1024">
<font-face units-per-em="1024" ascent="960" descent="-64" />
<missing-glyph horiz-adv-x="1024" />
<glyph unicode="&#x20;" horiz-adv-x="512" d="" />
<glyph unicode="&#xe900;" glyph-name="ic_addons" horiz-adv-x="1043" d="M145.468 280.546c-40.056 39.454-80.715 78.908-120.471 118.664-33.431 33.129-33.129 60.235 0 90.353l132.216 129.807c5.693 5.938 12.009 11.201 18.865 15.709l0.411 0.253c23.492 15.059 41.864 7.529 48.188-18.974 0-7.228 2.711-14.758 3.614-22.287 3.801-47.788 37.399-86.785 82.050-98.612l0.773-0.174c10.296-3.123 22.128-4.92 34.381-4.92 36.485 0 69.247 15.94 91.702 41.236l0.11 0.126c24.858 21.654 40.48 53.361 40.48 88.718 0 13.746-2.361 26.941-6.701 39.201l0.254-0.822c-14.354 43.689-53.204 75.339-99.907 78.885l-0.385 0.023c-18.372 2.409-41.562 0-48.188 23.492s11.445 34.635 24.998 47.887q65.054 62.946 130.409 126.795c32.527 31.925 60.235 32.226 90.353 0 40.659-39.153 80.715-78.908 120.471-118.362 8.348-8.594 17.297-16.493 26.82-23.671l0.587-0.424c8.609-7.946 20.158-12.819 32.846-12.819 24.823 0 45.29 18.653 48.148 42.707l0.022 0.229c3.012 13.252 4.518 26.805 8.734 39.755 12.103 42.212 50.358 72.582 95.705 72.582 3.844 0 7.637-0.218 11.368-0.643l-0.456 0.042c54.982-6.832 98.119-49.867 105.048-104.211l0.062-0.598c0.139-1.948 0.218-4.221 0.218-6.512 0-45.084-30.574-83.026-72.118-94.226l-0.683-0.157c-12.348-3.915-25.299-5.722-37.948-8.433-45.779-9.638-60.235-46.984-30.118-82.824 15.265-17.569 30.806-33.587 47.177-48.718l0.409-0.373c31.925-31.925 64.452-62.946 96.075-94.871 13.698-9.715 22.53-25.511 22.53-43.369s-8.832-33.655-22.366-43.259l-0.164-0.111c-45.176-45.176-90.353-90.353-137.035-134.325-5.672-5.996-12.106-11.184-19.169-15.434l-0.408-0.227c-4.663-3.903-10.725-6.273-17.341-6.273-13.891 0-25.341 10.449-26.92 23.915l-0.012 0.127c-2.019 7.447-3.714 16.45-4.742 25.655l-0.077 0.848c-4.119 47.717-38.088 86.476-82.967 97.721l-0.76 0.161c-9.584 2.63-20.589 4.141-31.947 4.141-39.149 0-74.105-17.956-97.080-46.081l-0.178-0.225c-21.801-21.801-35.285-51.918-35.285-85.185 0-1.182 0.017-2.36 0.051-3.533l-0.004 0.172c1.534-53.671 40.587-97.786 91.776-107.115l0.685-0.104c12.649-2.409 25.901-3.313 38.249-6.626 22.588-6.325 30.118-21.685 18.372-41.864-4.976-8.015-10.653-14.937-17.116-21.035l-0.051-0.047c-44.875-44.574-90.353-90.353-135.228-133.12-10.241-14.067-26.653-23.106-45.176-23.106s-34.935 9.039-45.066 22.946l-0.111 0.159c-40.659 38.852-80.414 78.908-120.471 118.362z" />
<glyph unicode="&#xe901;" glyph-name="ic_board" horiz-adv-x="1395" d="M1308.009 785.619h-1220.668c-48.237 0-87.341 39.104-87.341 87.341v-0.301c0 48.237 39.104 87.341 87.341 87.341h1220.668c48.237 0 87.341-39.104 87.341-87.341v0.301c0-48.237-39.104-87.341-87.341-87.341zM936.358 360.659h-849.016c-48.237 0-87.341 39.104-87.341 87.341v-0.301c0 48.237 39.104 87.341 87.341 87.341h849.016c48.237 0 87.341-39.104 87.341-87.341v0.301c0-48.237-39.104-87.341-87.341-87.341zM1308.009-64h-1220.668c-48.237 0-87.341 39.104-87.341 87.341v-0.301c0 48.237 39.104 87.341 87.341 87.341h1220.668c48.237 0 87.341-39.104 87.341-87.341v0.301c0-48.237-39.104-87.341-87.341-87.341z" />
<glyph unicode="&#xe902;" glyph-name="ic_calendar" horiz-adv-x="1091" d="M933.647 844.348h-65.355v52.104c0 36.095-29.261 65.355-65.355 65.355s-65.355-29.261-65.355-65.355v0-52.104h-396.047v52.104c0 36.095-29.261 65.355-65.355 65.355s-65.355-29.261-65.355-65.355v0-52.104h-53.007c-0.543 0.007-1.184 0.011-1.826 0.011-85.318 0-154.641-68.487-155.989-153.484l-0.002-0.127v-602.353c2.016-84.597 71.073-152.406 155.968-152.406 0.65 0 1.299 0.004 1.947 0.012l-0.098-0.001h775.831c0.543-0.007 1.184-0.011 1.826-0.011 85.318 0 154.641 68.487 155.989 153.484l0.002 0.127v602.353c-2.016 84.597-71.073 152.406-155.968 152.406-0.65 0-1.299-0.004-1.947-0.012l0.098 0.001zM993.882 89.6c0-33.267-26.968-60.235-60.235-60.235v0h-775.831c-33.267 0-60.235 26.968-60.235 60.235v0 458.089h896.301zM632.471 139.294h204.499c17.563 0.169 31.756 14.361 31.925 31.909v204.515c0 17.632-14.293 31.925-31.925 31.925v0h-204.499c-0.090 0.001-0.196 0.001-0.303 0.001-17.465 0-31.624-14.158-31.624-31.624 0-0.106 0.001-0.213 0.002-0.319v0.016-204.499c0-17.632 14.293-31.925 31.925-31.925v0z" />
<glyph unicode="&#xe903;" glyph-name="ic_cast" horiz-adv-x="1248" d="M1247.774 667.859v163.539c0.014 0.705 0.022 1.536 0.022 2.369 0 25.286-7.419 48.839-20.2 68.602l0.3-0.496c-22.443 35.182-61.27 58.178-105.467 58.178-1.251 0-2.498-0.018-3.741-0.055l0.182 0.004h-995.991c-66.831-0.479-121.042-53.846-122.876-120.3l-0.004-0.17c0-37.346 0-75.294 0-111.736 0-15.661 0-30.118 0-46.984s6.927-25.6 26.202-25.901h82.522c1.616-0.279 3.476-0.439 5.374-0.439 7.919 0 15.189 2.778 20.889 7.414l-0.061-0.048c4.001 5.639 6.397 12.663 6.397 20.246 0 2.428-0.245 4.798-0.713 7.087l0.039-0.227c0 16.264 0 32.828 0 49.092v34.635c0 13.854 0 27.708 0 43.369 0.072 0.722 0.112 1.561 0.112 2.409s-0.041 1.687-0.121 2.515l0.008-0.105h969.788v-26.504c0-12.649 0-25.299 0-37.948s0-32.226 0-48.188v-400.264c0-10.541 0-21.082 0-31.624 0-17.769 0-35.238 0-52.706v-90.353c0-19.275 0-38.852 0-60.235h-364.725c-0.419 0.024-0.909 0.037-1.402 0.037-6.755 0-12.919-2.527-17.599-6.687l0.027 0.024c-3.974-4.647-6.392-10.728-6.392-17.373 0-0.669 0.025-1.333 0.073-1.99l-0.005 0.088c0-19.576 0-39.153 0-58.729v-30.118c0-18.673 6.325-24.998 25.299-24.998h112.038q131.313 0 263.228 0v0c0 0 0.001 0 0.001 0 69.528 0 125.892 56.364 125.892 125.892 0 0.212-0.001 0.423-0.002 0.635v-0.033c0 38.551 0 77.101 0 115.652zM570.127 233.864c-45.557 87.92-108.351 161.018-184.427 217.155l-1.701 1.198c-50.839 37.899-109.826 68.648-173.412 89.159l-4.282 1.194c-53.805 18.222-115.815 29.171-180.249 30.112l-0.457 0.005c-0.61 0.055-1.32 0.086-2.037 0.086-6.168 0-11.795-2.318-16.057-6.13l0.023 0.020c-3.774-4.152-6.085-9.694-6.085-15.775 0-0.596 0.022-1.186 0.066-1.771l-0.005 0.078q0-46.080 0-92.16c-0.071-0.651-0.112-1.406-0.112-2.17 0-11.643 9.439-21.082 21.082-21.082 0.569 0 1.134 0.023 1.692 0.067l-0.074-0.005c38.257-1.093 74.788-5.973 109.992-14.285l-3.677 0.732c34.559-8.541 64.648-19.581 93.113-33.439l-2.76 1.213c65.045-30.939 119.844-73.501 163.859-125.486l0.584-0.707c49.104-58.395 85.080-129.473 102.397-207.571l0.606-3.252c6.061-27.848 9.966-60.185 10.828-93.279l0.014-0.688c-0.045-0.508-0.070-1.099-0.070-1.696 0-11.311 9.169-20.48 20.48-20.48 0.981 0 1.945 0.069 2.889 0.202l-0.109-0.013h60.235c10.842 0 21.685 0 32.226 0h1.807c0.306-0.015 0.665-0.024 1.026-0.024 5.755 0 11.001 2.182 14.956 5.763l-0.019-0.017c4.123 4.402 6.655 10.338 6.655 16.865 0 0.424-0.011 0.846-0.032 1.264l0.002-0.059c-0.758 26.735-3.14 52.209-7.064 77.171l0.438-3.383c-9.612 74.923-31.586 142.854-63.924 204.494l1.581-3.308zM346.654 176.941c-30.246 43.515-67.507 79.817-110.518 108.088l-1.519 0.938c-58.496 38.891-129.786 63.029-206.538 65.638l-0.671 0.018c-0.987 0.115-2.13 0.18-3.288 0.18-6.563 0-12.635-2.099-17.583-5.662l0.089 0.061c-3.862-4.574-6.209-10.536-6.209-17.046 0-1.104 0.067-2.192 0.199-3.261l-0.013 0.128v-88.847c0-18.974 7.228-26.805 26.202-26.805 49.069-1.007 94.378-16.277 132.181-41.814l-0.868 0.553c51.412-33.037 89.775-82.534 107.934-140.931l0.489-1.827c6.315-19.746 10.33-42.533 11.132-66.136l0.011-0.424c-0.016-0.325-0.025-0.706-0.025-1.090 0-6.372 2.537-12.152 6.656-16.384l-0.005 0.005c4.272-3.926 9.995-6.332 16.28-6.332 0.206 0 0.412 0.003 0.617 0.008l-0.030-0.001h90.353c1.034-0.153 2.227-0.241 3.441-0.241 6.323 0 12.092 2.377 16.461 6.285l-0.024-0.021c3.189 4.048 5.116 9.221 5.116 14.844 0 1.891-0.218 3.732-0.63 5.498l0.032-0.163c-0.799 18.573-2.523 35.909-5.156 52.945l0.337-2.649c-9.375 62.263-32.141 117.876-65.302 165.74l0.851-1.298zM27.407 129.958c-1.56 0.351-3.351 0.551-5.19 0.551-5.663 0-10.881-1.906-15.047-5.112l0.058 0.043c-4.014-4.335-6.477-10.157-6.477-16.555 0-0.959 0.055-1.904 0.163-2.834l-0.011 0.113v-145.769c-0.040-0.518-0.062-1.122-0.062-1.731 0-6.313 2.428-12.060 6.402-16.356l-0.015 0.016c4.314-3.926 10.073-6.329 16.394-6.329 0.166 0 0.332 0.002 0.497 0.005h148.154c0.467-0.033 1.011-0.051 1.56-0.051 6.27 0 11.974 2.425 16.224 6.389l-0.014-0.013c3.517 4.198 5.653 9.658 5.653 15.616 0 1.184-0.084 2.349-0.248 3.488l0.015-0.13c-1.725 23.969-7.987 46.1-17.929 66.077l0.461-1.023c-27.317 58.394-83.713 99.091-150.041 103.575l-0.547 0.030z" />
<glyph unicode="&#xe904;" glyph-name="ic_channels" horiz-adv-x="1391" d="M501.459 327.529v377.374c0 0 0 0.001 0 0.001 0 22.516 18.167 40.788 40.643 40.959h0.016c7.294-0.019 14.141-1.915 20.089-5.228l-0.212 0.108 341.534-188.536c12.694-7.123 21.13-20.496 21.13-35.84s-8.437-28.717-20.924-35.734l-0.206-0.106-341.233-188.838c-5.741-3.22-12.599-5.116-19.9-5.116-15.251 0-28.57 8.275-35.712 20.58l-0.106 0.198c-3.172 5.843-5.060 12.784-5.12 20.16v0.018zM1141.459-64h-897.807c-22.669 1.937-40.336 20.816-40.336 43.821s17.666 41.884 40.173 43.81l0.163 0.011h897.807c22.669-1.937 40.336-20.816 40.336-43.821s-17.666-41.884-40.173-43.81l-0.163-0.011zM1275.181 72.132h-1159.529c-63.841 0.341-115.482 52.088-115.652 115.937v656.28c0 63.873 51.779 115.652 115.652 115.652v0h1159.529c63.873 0 115.652-51.779 115.652-115.652v0-656.264c-0.17-63.865-51.811-115.612-115.619-115.953h-0.032zM115.652 885.308c-22.622 0-40.96-18.338-40.96-40.96v0-656.264c-0.001-0.089-0.001-0.195-0.001-0.301 0-22.622 18.338-40.96 40.96-40.96 0 0 0.001 0 0.001 0h1159.529c22.622 0 40.96 18.338 40.96 40.96v0 0 656.565c0 22.622-18.338 40.96-40.96 40.96v0h-1159.529z" />
<glyph unicode="&#xe905;" glyph-name="ic_continue" horiz-adv-x="1342" d="M1227.896 960h-1113.449c-0.181 0.001-0.395 0.002-0.609 0.002-62.452 0-113.158-50.286-113.838-112.577l-0.001-0.064v-559.285c0.68-62.355 51.387-112.642 113.838-112.642 0.214 0 0.428 0.001 0.642 0.002h718.875l-53.911-53.007c-5.236-5.412-8.463-12.795-8.463-20.932s3.227-15.52 8.471-20.94l-0.008 0.008c5.459-5.502 13.023-8.909 21.384-8.909s15.925 3.406 21.382 8.907l0.002 0.002 114.447 112.941c5.236 5.412 8.463 12.795 8.463 20.932s-3.227 15.52-8.471 20.94l0.008-0.008-114.447 112.941c-5.459 5.502-13.023 8.909-21.384 8.909s-15.925-3.406-21.382-8.907l-0.002-0.002c-5.236-5.412-8.463-12.795-8.463-20.932s3.227-15.52 8.471-20.94l-0.008 0.008 53.911-53.308h-718.908c-0.090-0.001-0.196-0.001-0.302-0.001-19.356 0-35.067 15.606-35.236 34.922v559.301c0.17 19.332 15.881 34.938 35.236 34.938 0.106 0 0.213 0 0.319-0.001h1114.337c0.269 0.007 0.587 0.012 0.905 0.012 19.359 0 35.072-15.612 35.236-34.933v-559.301c-0.17-19.332-15.881-34.938-35.236-34.938-0.106 0-0.213 0-0.319 0.001h-170.45c-21.457 0-38.852-17.395-38.852-38.852s17.395-38.852 38.852-38.852h168.96c0.181-0.001 0.395-0.002 0.609-0.002 62.452 0 113.158 50.286 113.838 112.577l0.001 0.064v559.285c-0.68 62.355-51.387 112.642-113.838 112.642-0.214 0-0.428-0.001-0.642-0.002h0.033zM973.704 26.353h-605.064c-24.95 0-45.176-20.226-45.176-45.176s20.226-45.176 45.176-45.176v0h605.064c24.95 0 45.176 20.226 45.176 45.176s-20.226 45.176-45.176 45.176v0z" />
<glyph unicode="&#xe906;" glyph-name="ic_discover" horiz-adv-x="1025" d="M602.353 384.151c49.694 96.075 99.991 192.151 150.588 288.226 3.012 6.024 10.842 13.252 4.819 19.275s-13.553 0-19.275-4.216l-291.84-150.588c-10.241-5.534-18.27-14.048-23.055-24.371l-0.135-0.326q-64.753-124.386-129.506-248.471c-8.734-16.866-17.468-33.129-25.901-49.995-2.711-4.819-6.024-11.445 4.518-12.951 4.819 2.108 10.24 4.216 15.36 6.927l289.732 150.588c10.78 5.894 19.287 14.788 24.546 25.559l0.151 0.342zM883.351 798.268c-90.543 95.747-216.891 156.82-357.52 161.708l-0.88 0.024c-3.070 0.066-6.687 0.104-10.314 0.104-138.198 0-263.562-54.947-355.438-144.186l0.123 0.119c-98.26-92.852-159.424-224.071-159.424-369.575 0-142.717 58.843-271.691 153.591-363.984l0.111-0.107c88.622-88.958 210.672-144.561 345.709-146.368l0.343-0.004h24.094c277.633 5.364 500.641 231.69 500.641 510.104 0 136.661-53.732 260.772-141.221 352.36l0.185-0.195zM242.748 176.941c-70.126 69.135-113.568 165.177-113.568 271.364 0 210.414 170.574 380.988 380.988 380.988 0.644 0 1.288-0.002 1.931-0.005h-0.099c210.913 0 381.892-170.979 381.892-381.892s-170.979-381.892-381.892-381.892v0 0c-0.446-0.002-0.975-0.003-1.503-0.003-104.66 0-199.368 42.605-267.728 111.418l-0.020 0.021z" />
<glyph unicode="&#xe907;" glyph-name="ic_downloads" horiz-adv-x="1126" d="M1058.033 72.433h-989.666c-1.356 0.096-2.939 0.151-4.535 0.151-37.758 0-68.367-30.609-68.367-68.367s30.609-68.367 68.367-68.367c1.596 0 3.179 0.055 4.747 0.162l-0.212-0.012h989.666c1.356-0.096 2.939-0.151 4.535-0.151 37.758 0 68.367 30.609 68.367 68.367s-30.609 68.367-68.367 68.367c-1.596 0-3.179-0.055-4.747-0.162l0.212 0.012zM513.506 186.88c12.895-12.322 30.409-19.906 49.694-19.906s36.799 7.584 49.721 19.932l-0.027-0.026 249.073 240.941c12.652 12.183 20.511 29.268 20.511 48.188s-7.859 36.005-20.49 48.168l-0.021 0.020c-12.913 12.409-30.486 20.051-49.845 20.051s-36.932-7.642-49.869-20.073l-129.783-124.062v491.52c0 0.003 0 0.007 0 0.011 0 37.334-29.926 67.679-67.099 68.356l-0.063 0.001h-4.216c-37.758 0-68.367-30.609-68.367-68.367v-491.52l-128.602 124.687c-12.913 12.409-30.486 20.051-49.845 20.051s-36.932-7.642-49.869-20.073l0.024 0.023c-12.652-12.183-20.511-29.268-20.511-48.188s7.859-36.005 20.49-48.168l0.021-0.020z" />
<glyph unicode="&#xe908;" glyph-name="ic_drawer" horiz-adv-x="1395" d="M87.341 785.619h1220.668c1.532-0.096 3.323-0.151 5.127-0.151 48.237 0 87.341 39.104 87.341 87.341s-39.104 87.341-87.341 87.341c-1.804 0-3.594-0.055-5.371-0.162l0.244 0.012h-1220.668c-1.532 0.096-3.323 0.151-5.127 0.151-48.237 0-87.341-39.104-87.341-87.341s39.104-87.341 87.341-87.341c1.804 0 3.594 0.055 5.371 0.162l-0.244-0.012zM1308.009 535.341h-1220.668c-48.237 0-87.341-39.104-87.341-87.341s39.104-87.341 87.341-87.341h1220.668c48.237 0 87.341 39.104 87.341 87.341s-39.104 87.341-87.341 87.341v0zM1308.009 110.381h-1220.668c-1.532 0.096-3.323 0.151-5.127 0.151-48.237 0-87.341-39.104-87.341-87.341s39.104-87.341 87.341-87.341c1.804 0 3.594 0.055 5.371 0.162l-0.244-0.012h1220.668c1.532-0.096 3.323-0.151 5.127-0.151 48.237 0 87.341 39.104 87.341 87.341s-39.104 87.341-87.341 87.341c-1.804 0-3.594-0.055-5.371-0.162l0.244 0.012z" />
<glyph unicode="&#xe909;" glyph-name="ic_eye" horiz-adv-x="1742" d="M1736.885 466.071c-135.949 175.767-309.687 315.734-509.57 409.067l-8.454 3.545c-243.953 107.821-487.304 113.544-727.642-13.854-129.466-69.885-240.813-152.614-338.716-248.962l0.194 0.19c-53.609-52.104-103.605-107.821-152.696-159.624 0.726-4.346 1.773-8.195 3.155-11.879l-0.143 0.434c3.313-4.518 6.626-9.035 10.24-13.252 122.525-150.238 267.573-276.391 431.090-375.027l7.423-4.155c116.201-72.917 257.445-116.17 408.791-116.17 81.433 0 159.941 12.522 233.704 35.745l-5.507-1.495c271.059 81.016 477.967 251.181 650.842 468.329 1.287 3.227 2.034 6.966 2.034 10.88 0 6.025-1.769 11.636-4.816 16.344l0.071-0.118zM873.412 22.739c-234.606 0.343-424.659 190.607-424.659 425.261 0 234.865 190.396 425.261 425.261 425.261s425.261-190.396 425.261-425.261v0c-1.193-234.595-191.22-424.411-425.782-425.261h-0.082zM799.021 684.424c40.056-48.791 40.358-95.172 0-129.807s-86.739-25.6-133.722 25.6c-61.741-85.233-42.767-229.195 39.755-303.586 43.704-41.558 102.957-67.122 168.18-67.122 63.513 0 121.365 24.242 164.806 63.977l-0.186-0.168c49.108 45.331 79.758 110.028 79.758 181.883 0 52.615-16.433 101.392-44.448 141.477l0.53-0.8c-66.56 98.184-198.776 123.181-274.673 88.546z" />
<glyph unicode="&#xe90a;" glyph-name="ic_facebook" horiz-adv-x="474" d="M474.052 628.706h-161.431v106.014c-0.245 1.731-0.385 3.731-0.385 5.764 0 23.952 19.417 43.369 43.369 43.369 0.665 0 1.326-0.015 1.984-0.045l-0.093 0.003h114.146v176.188h-156.913c-174.381 0-213.835-131.012-213.835-214.739v-116.555h-100.894v-180.706h100.894v-512h210.824v512h143.059z" />
<glyph unicode="&#xe90b;" glyph-name="ic_help" horiz-adv-x="596" d="M153.901 333.252c-0.109 2.593-0.17 5.636-0.17 8.694 0 38.876 9.994 75.418 27.554 107.196l-0.579-1.142c27.163 40.735 60.963 74.728 100.21 101.279l1.286 0.82c35.996 23.578 66.927 50.967 93.458 82.209l0.509 0.615c14.307 19.568 22.892 44.107 22.892 70.651 0 0.256-0.001 0.512-0.002 0.767v-0.039c0.056 1.105 0.089 2.399 0.089 3.701 0 25.433-12.266 48.001-31.206 62.111l-0.205 0.146c-23.278 14.516-51.542 23.123-81.817 23.123-3.003 0-5.986-0.085-8.947-0.252l0.411 0.018c-58.672-1.407-114.055-13.896-164.656-35.441l2.924 1.106c-9.304-3.845-20.108-6.077-31.433-6.077-32.637 0-60.943 18.54-74.962 45.663l-0.221 0.471c-5.738 11.020-9.104 24.065-9.104 37.896 0 34.353 20.764 63.856 50.426 76.645l0.542 0.208c70.629 29.343 152.665 46.384 238.681 46.384 0.689 0 1.377-0.001 2.065-0.003h-0.107c5.501 0.317 11.936 0.498 18.413 0.498 76.827 0 147.72-25.412 204.729-68.289l-0.874 0.63c50.383-40.518 82.354-102.157 82.354-171.263 0-2.685-0.048-5.359-0.144-8.021l0.011 0.385c0.060-1.998 0.095-4.348 0.095-6.707 0-45.126-12.579-87.314-34.421-123.249l0.594 1.053c-35.418-48.351-78.169-88.896-127.051-120.84l-1.853-1.136c-31.417-21.25-58.543-45.505-82.065-72.94l-0.458-0.547c-10.853-17.093-17.296-37.913-17.296-60.238 0-1.906 0.047-3.801 0.14-5.683l-0.010 0.265c0.005-0.302 0.007-0.659 0.007-1.017 0-33.756-23.631-61.993-55.253-69.069l-0.472-0.089c-8.337-1.775-17.915-2.791-27.73-2.791-12.19 0-24.014 1.568-35.281 4.512l0.968-0.215c-34.846 10.040-60.224 40.827-62.035 77.807l-0.008 0.198zM132.216 51.351c-0.215 2.62-0.338 5.671-0.338 8.751 0 29.936 11.585 57.166 30.517 77.452l-0.061-0.066c21.565 18.849 49.978 30.344 81.075 30.344 2.628 0 5.238-0.082 7.825-0.244l-0.354 0.018c2.212 0.145 4.797 0.227 7.4 0.227 30.734 0 58.779-11.509 80.062-30.451l-0.121 0.106c18.834-20.337 30.388-47.653 30.388-77.668 0-2.768-0.098-5.513-0.291-8.232l0.021 0.365c0.147-2.166 0.231-4.694 0.231-7.242 0-29.918-11.541-57.141-30.414-77.46l0.066 0.071c-20.88-18.848-48.681-30.379-79.175-30.379-2.767 0-5.513 0.095-8.233 0.282l0.367-0.020c-2.381-0.168-5.161-0.263-7.962-0.263-30.753 0-58.814 11.523-80.102 30.486l0.12-0.105c-19.303 20.27-31.18 47.766-31.18 78.036 0 2.108 0.058 4.202 0.171 6.282l-0.013-0.289z" />
<glyph unicode="&#xe90c;" glyph-name="ic_library" horiz-adv-x="1209" d="M1204.706 42.918l-190.645 826.729c-9.055 39.42-43.838 68.374-85.384 68.374-48.324 0-87.499-39.175-87.499-87.499 0-6.779 0.771-13.378 2.23-19.714l-0.114 0.589 191.548-827.633c11.135-36.317 44.369-62.266 83.664-62.266 48.237 0 87.341 39.104 87.341 87.341 0 4.971-0.415 9.846-1.213 14.591l0.071-0.513zM674.334 960c0 0 0 0-0.001 0-48.071 0-87.040-38.969-87.040-87.040 0-0.106 0-0.212 0.001-0.318v0.016-849.318c-0.096-1.532-0.151-3.323-0.151-5.127 0-48.237 39.104-87.341 87.341-87.341s87.341 39.104 87.341 87.341c0 1.804-0.055 3.594-0.162 5.371l0.012-0.244v849.318c0 48.237-39.104 87.341-87.341 87.341v0zM87.944 960c-0.179 0.001-0.391 0.002-0.602 0.002-48.237 0-87.341-39.104-87.341-87.341 0-0.001 0-0.002 0-0.002v0-849.318c-0.096-1.532-0.151-3.323-0.151-5.127 0-48.237 39.104-87.341 87.341-87.341s87.341 39.104 87.341 87.341c0 1.804-0.055 3.594-0.162 5.371l0.012-0.244v849.318c0 0.090 0.001 0.197 0.001 0.303 0 47.859-38.627 86.697-86.406 87.038h-0.032zM380.988 788.631c-48.002-0.171-86.869-39.038-87.040-87.024v-678.265c-0.096-1.532-0.151-3.323-0.151-5.127 0-48.237 39.104-87.341 87.341-87.341s87.341 39.104 87.341 87.341c0 1.804-0.055 3.594-0.162 5.371l0.012-0.244v678.249c-0.171 48.108-39.209 87.040-87.341 87.040 0 0 0 0-0.001 0v0z" />
<glyph unicode="&#xe90d;" glyph-name="ic_more" horiz-adv-x="216" d="M215.944 851.878c0 0.089 0 0.195 0 0.301 0 59.714-48.408 108.122-108.122 108.122s-108.122-48.408-108.122-108.122c0-59.714 48.408-108.122 108.122-108.122 0.106 0 0.211 0 0.317 0h-0.016c59.548 0 107.821 48.273 107.821 107.821v0zM215.944 452.819c0 59.714-48.408 108.122-108.122 108.122s-108.122-48.408-108.122-108.122c0-59.714 48.408-108.122 108.122-108.122 0.106 0 0.212 0 0.318 0h-0.016c0 0 0 0 0 0 59.548 0 107.821 48.273 107.821 107.821 0 0.106 0 0.212 0 0.318v-0.017zM215.944 44.122c0 59.714-48.408 108.122-108.122 108.122s-108.122-48.408-108.122-108.122c0-59.714 48.408-108.122 108.122-108.122 0.106 0 0.212 0 0.318 0h-0.016c0 0 0 0 0 0 59.548 0 107.821 48.273 107.821 107.821 0 0.106 0 0.212 0 0.318v-0.017z" />
<glyph unicode="&#xe90e;" glyph-name="ic_movies" horiz-adv-x="840" d="M813.176-64h-708.969c-14.3 3.367-24.781 16.017-24.781 31.115 0 0.815 0.031 1.623 0.090 2.422l-0.006-0.107q0 215.642 0 430.984v4.819c0.015 0 0.033 0 0.051 0 30.976 0 58.991 12.673 79.146 33.116l0.013 0.013c19.218 19.773 31.069 46.796 31.069 76.586 0 1.134-0.017 2.265-0.051 3.391l0.004-0.165h649.939v-558.381c-1.037-2.541-2.047-4.621-3.168-6.63l0.157 0.306c-4.8-8.938-13.235-15.394-23.273-17.431l-0.219-0.037zM796.612 478.118h-126.795c-1.944-0.438-3.547-1.646-4.5-3.28l-0.018-0.033-60.235-95.473c-0.466-0.866-0.972-1.957-1.422-3.076l-0.084-0.237h128.301c3.012 0 3.915 0 5.421 3.313l56.922 95.172c0.887 1.056 1.687 2.24 2.356 3.505l0.053 0.11zM393.638 376.922h128.602c0.156-0.017 0.337-0.026 0.52-0.026 2.3 0 4.246 1.517 4.892 3.604l0.010 0.036c18.974 30.118 37.948 62.645 56.621 94.268l2.711 4.518h-125.892c-0.179 0.018-0.387 0.028-0.597 0.028-2.519 0-4.694-1.473-5.711-3.604l-0.016-0.038-58.428-94.268zM377.675 478.118h-126.193c-0.024 0-0.052 0.001-0.080 0.001-2.57 0-4.763-1.609-5.629-3.875l-0.014-0.041-58.428-93.064-2.711-4.216h124.386c0.165-0.018 0.357-0.028 0.551-0.028 2.127 0 3.968 1.225 4.856 3.008l0.014 0.031 60.235 95.473zM707.464 960c4.931-1.519 9.225-3.567 13.143-6.142l-0.192 0.119c4.632-3.831 8.386-8.548 11.033-13.909l0.11-0.247c18.372-44.574 36.442-90.353 54.814-134.325l-602.353-243.652c-18.275 41.26-58.864 69.523-106.054 69.523-14.706 0-28.77-2.745-41.71-7.75l0.79 0.269c-4.819 12.047-10.842 24.094-14.758 37.045-0.883 2.705-1.392 5.818-1.392 9.050 0 13.254 8.561 24.508 20.455 28.534l0.212 0.062c18.673 6.626 39.153 14.456 58.428 20.48l542.118 217.751 43.972 19.275 10.24 3.915zM123.181 688.941h1.807l93.064-67.464c0.846-0.357 1.829-0.565 2.861-0.565s2.015 0.208 2.911 0.583l-0.050-0.018 90.353 35.84 26.504 10.842-2.409 1.807-91.859 65.656c-0.846 0.572-1.889 0.914-3.012 0.914s-2.166-0.341-3.031-0.926l0.019 0.012-77.402-30.118zM535.793 745.261l-2.711 2.108-90.353 66.56c-0.933 0.622-2.080 0.993-3.313 0.993s-2.38-0.371-3.335-1.007l0.022 0.014-118.061-45.779 2.108-1.807 92.461-67.162c0.846-0.357 1.829-0.565 2.861-0.565s2.015 0.208 2.911 0.583l-0.050-0.018 87.341 34.635zM730.353 824.471h-1.807l-91.859 68.969c-0.803 0.547-1.794 0.874-2.861 0.874s-2.059-0.327-2.879-0.885l0.018 0.011-90.353-36.744c-8.433-3.012-16.565-6.325-24.998-9.939l2.409-2.108 90.353-65.355c0.846-0.357 1.829-0.565 2.861-0.565s2.015 0.208 2.911 0.583l-0.050-0.018 75.294 30.118zM0 526.607c0 3.614 1.506 7.228 2.409 10.541 8.935 34.682 39.932 59.894 76.818 59.894 4.782 0 9.465-0.424 14.014-1.236l-0.48 0.071c37.902-5.909 66.564-38.317 66.564-77.421 0-2.432-0.111-4.839-0.328-7.214l0.023 0.305c-3.944-40.578-37.878-72.037-79.159-72.037-39.144 0-71.681 28.287-78.286 65.534l-0.070 0.48c-0.474 1.046-0.977 1.935-1.547 2.775l0.041-0.064z" />
<glyph unicode="&#xe90f;" glyph-name="ic_play" horiz-adv-x="899" d="M891.482 448l-884.254-512v1024z" />
<glyph unicode="&#xe910;" glyph-name="ic_remote" horiz-adv-x="1022" d="M624.941 784.414c-13.057 13.353-31.097 21.786-51.107 22.285l-0.093 0.002c-0.040 0-0.088 0-0.135 0-20.908 0-39.826-8.522-53.469-22.282l-0.005-0.005c-16.866-16.565-33.732-33.431-50.296-50.296l-439.718-439.115c-36.141-37.346-40.96-76.8-8.433-110.833q112.038-115.652 227.388-227.388c12.53-12.789 29.979-20.717 49.28-20.717 20.031 0 38.068 8.54 50.668 22.177l0.042 0.046c14.155 12.649 27.106 26.805 40.659 40.056 150.588 150.588 301.176 301.176 451.765 451.765 37.948 37.948 40.659 77.402 6.024 112.941-74.391 74.391-148.781 147.576-222.569 221.365zM180.706 183.266c-1.178-0.096-2.55-0.151-3.936-0.151-28.443 0-51.501 23.058-51.501 51.501s23.058 51.501 51.501 51.501c1.385 0 2.757-0.055 4.115-0.162l-0.179 0.011c0.902 0.058 1.955 0.091 3.017 0.091 27.778 0 50.296-22.518 50.296-50.296 0-0.244-0.002-0.487-0.005-0.73v0.037c0.101-1.169 0.158-2.53 0.158-3.904 0-26.614-21.575-48.188-48.188-48.188-1.86 0-3.695 0.105-5.499 0.31l0.221-0.020zM297.562 62.795c-28.62 0.424-51.657 23.724-51.657 52.405 0 28.945 23.465 52.41 52.41 52.41 0.265 0 0.529-0.002 0.793-0.006h-0.040c0.116 0.001 0.254 0.002 0.391 0.002 27.944 0 50.598-22.653 50.598-50.598 0-1.060-0.033-2.113-0.097-3.156l0.007 0.143c0.012-0.399 0.018-0.868 0.018-1.339 0-27.113-21.979-49.092-49.092-49.092-1.278 0-2.545 0.049-3.799 0.145l0.167-0.010zM297.562 299.219c-0.703-0.036-1.526-0.057-2.354-0.057-26.78 0-48.489 21.709-48.489 48.489 0 1.717 0.089 3.414 0.263 5.085l-0.018-0.209c-0.027 0.633-0.043 1.376-0.043 2.123 0 29.275 23.732 53.007 53.007 53.007 0.439 0 0.876-0.005 1.312-0.016l-0.065 0.001c27.941-2.397 49.712-25.668 49.712-54.025 0-0.489-0.006-0.977-0.019-1.464l0.002 0.072c0.010-0.372 0.015-0.81 0.015-1.249 0-28.111-22.788-50.899-50.899-50.899-0.747 0-1.49 0.016-2.229 0.048l0.105-0.004zM414.118 182.362c-0.671-0.033-1.456-0.052-2.246-0.052-26.946 0-48.791 21.844-48.791 48.791 0 1.29 0.050 2.569 0.148 3.833l-0.010-0.168c0.13 28.012 22.868 50.67 50.898 50.67 0.954 0 1.901-0.026 2.842-0.078l-0.131 0.006c28.759-0.293 52.137-22.935 53.604-51.369l0.005-0.132c-1.277-28.259-24.497-50.686-52.956-50.686-1.077 0-2.147 0.032-3.209 0.096l0.146-0.007zM553.261 338.372c-83.676 0.427-151.343 68.359-151.343 152.094 0 84 68.096 152.096 152.096 152.096 0.265 0 0.529-0.001 0.794-0.002h-0.041c0.006 0 0.013 0 0.019 0 83.168 0 150.588-67.421 150.588-150.588 0-0.847-0.007-1.693-0.021-2.537l0.002 0.127c-0.169-83.040-67.525-150.292-150.588-150.292-0.424 0-0.847 0.002-1.27 0.005h0.065zM970.692 831.398c-44.849 66.251-113.901 113.214-194.197 128.31l-1.869 0.292c-39.454 0-57.224-9.939-57.826-31.925 0-26.805 16.565-35.84 39.454-39.153 25.97-3.55 49.371-12.055 70.092-24.554l-0.821 0.46c65.543-35.169 112.467-97.757 125.675-172.009l0.217-1.469c3.614-21.986 13.553-37.948 38.249-37.647s34.334 17.468 34.334 44.574c-3.974 51.025-23.438 96.864-53.636 133.53l0.328-0.41zM738.184 841.638c-20.48 0-36.442-7.831-40.056-28.612-0.555-2.311-0.873-4.965-0.873-7.693 0-17.785 13.522-32.411 30.846-34.159l0.144-0.012c54.205-8.944 96.459-50.995 105.606-104.354l0.107-0.757c2.215-17.355 16.892-30.635 34.671-30.635 2.116 0 4.188 0.188 6.2 0.548l-0.212-0.031c16.96 1.407 30.192 15.519 30.192 32.722 0 0.779-0.027 1.552-0.081 2.317l0.006-0.103c-1.205 81.016-91.558 170.767-166.551 170.767zM555.671 573.591c-1.188 0.064-2.578 0.1-3.977 0.1-43.58 0-78.908-35.328-78.908-78.908 0-1.094 0.022-2.184 0.066-3.267l-0.005 0.155c-0.13-1.672-0.203-3.62-0.203-5.586 0-42.415 34.385-76.8 76.8-76.8 1.767 0 3.52 0.060 5.258 0.177l-0.235-0.013c1.014-0.047 2.204-0.073 3.399-0.073 43.58 0 78.908 35.328 78.908 78.908 0 1.297-0.031 2.587-0.093 3.868l0.007-0.181c0.018 0.632 0.028 1.376 0.028 2.123 0 43.912-35.598 79.511-79.511 79.511-0.539 0-1.078-0.005-1.615-0.016l0.080 0.001z" />
<glyph unicode="&#xe911;" glyph-name="ic_reset" d="M512 960c-282.77 0-512-229.23-512-512s229.23-512 512-512c282.77 0 512 229.23 512 512v0c0 282.77-229.23 512-512 512v0zM763.482 299.821c11.388-12.841 18.343-29.839 18.343-48.461 0-40.419-32.766-73.186-73.186-73.186-18.622 0-35.62 6.955-48.537 18.409l0.076-0.066-148.179 148.179-148.179-148.179c-13.176-13.194-31.383-21.363-51.497-21.384h-0.004c-40.335 0.111-72.99 32.835-72.99 73.186 0 20.086 8.092 38.283 21.194 51.507l148.173 148.173-148.179 148.179c-13.114 13.267-21.214 31.513-21.214 51.652s8.101 38.385 21.221 51.659l-0.007-0.007c13.391 12.836 31.598 20.738 51.652 20.738s38.261-7.903 51.678-20.764l-0.026 0.025 148.179-148.179 148.179 148.179c12.841 11.388 29.839 18.343 48.461 18.343 40.419 0 73.186-32.766 73.186-73.186 0-18.622-6.955-35.62-18.409-48.537l0.066 0.076-148.179-148.179z" />
<glyph unicode="&#xe912;" glyph-name="ic_search" horiz-adv-x="1025" d="M1001.713 80.264c-48.791 50.899-162.334 163.84-214.438 216.546 43.772 66.969 69.909 148.918 70.174 236.956v0.070c-1.877 235.432-193.166 425.561-428.862 425.561-236.861 0-428.875-192.014-428.875-428.875 0-236.539 191.492-428.353 427.909-428.874h0.050c1.551-0.021 3.382-0.033 5.216-0.033 85.536 0 165.055 25.764 231.219 69.956l-1.518-0.954 201.487-204.499c16.379-18.259 39.94-29.789 66.201-30.117l0.058-0.001c2.034-0.171 4.401-0.269 6.791-0.269 35.32 0 65.657 21.333 78.83 51.816l0.214 0.556c5.589 10.528 8.87 23.018 8.87 36.275 0 21.857-8.921 41.631-23.32 55.878l-0.007 0.007zM429.478 229.346c-0.004 0-0.008 0-0.012 0-166.335 0-301.176 134.841-301.176 301.176 0 0.953 0.004 1.905 0.013 2.856l-0.001-0.146c0.599 165.882 135.211 300.124 301.176 300.124 166.336 0 301.178-134.842 301.178-301.178 0-0.371-0.001-0.741-0.002-1.111v0.057c0-0.179 0.001-0.391 0.001-0.603 0-166.335-134.841-301.176-301.176-301.176-0.106 0-0.212 0-0.318 0h0.016z" />
<glyph unicode="&#xe913;" glyph-name="ic_series" horiz-adv-x="1125" d="M1089.958 720.866c-16.353 10.225-36.218 16.289-57.499 16.289-2.977 0-5.926-0.119-8.843-0.351l0.385 0.025h-384.602c-2.584-0.543-5.552-0.854-8.594-0.854-7.913 0-15.335 2.105-21.736 5.785l0.212-0.112 94.569 99.689c21.384 22.588 42.767 45.176 63.849 68.066 11.746 12.951 16.866 27.407 3.012 41.562s-27.106 9.035-39.755-3.614c-3.975-3.53-7.614-7.168-11.028-11.011l-0.116-0.133c-46.381-48.791-93.064-96.678-138.842-146.974-12.047-12.951-20.48-16.565-33.129 0s-25.6 27.106-38.249 40.358l-113.845 117.459c-11.144 12.047-24.395 18.673-38.852 6.024-5.844-5.002-9.524-12.387-9.524-20.631s3.68-15.628 9.488-20.6l0.037-0.031c4.819-5.722 9.939-11.144 15.059-16.565 43.671-45.478 87.040-90.353 130.409-137.035 4.518-5.12 14.758-9.336 10.842-17.468s-13.553-3.614-20.781-3.614h-390.626c-70.174-0.602-101.798-32.527-101.798-102.701v-596.329c0-71.981 30.118-102.099 101.496-102.099h922.504c0.033 0 0.071 0 0.11 0 14.016 0 27.726 1.315 41.011 3.829l-1.365-0.215c34.573 7.715 60.059 38.052 60.235 74.371v0.020q0 321.656 0 643.012c0.020 0.645 0.032 1.402 0.032 2.163 0 25.859-13.467 48.573-33.77 61.511l-0.295 0.176zM832.151 99.84c-0.171-39.458-32.197-71.379-71.679-71.379 0 0 0 0-0.001 0h-589.101c-39.421 0-71.379 31.957-71.379 71.379v0 478.569c0 0 0 0 0 0.001 0 39.482 31.921 71.508 71.363 71.679h589.117c39.519-0.17 71.51-32.161 71.68-71.664v-0.016zM980.932 364.875c-30.393 0.468-55.009 24.558-56.316 54.695l-0.004 0.119c0 0.001 0 0.002 0 0.003 0 29.895 24.064 54.169 53.878 54.509h0.032c1.283 0.116 2.775 0.182 4.283 0.182 27.944 0 50.598-22.653 50.598-50.598 0-0.911-0.024-1.817-0.072-2.717l0.005 0.126c0.009-0.367 0.014-0.8 0.014-1.234 0-29.809-23.664-54.090-53.231-55.084l-0.091-0.002zM980.932 537.148c-0.089-0.001-0.195-0.001-0.3-0.001-30.439 0-55.115 24.676-55.115 55.115s24.676 55.115 55.115 55.115c30.439 0 55.115-24.676 55.115-55.115 0-0.106 0-0.211-0.001-0.317v0.016c0 0 0-0.001 0-0.001 0-29.608-24.002-53.609-53.609-53.609-0.106 0-0.212 0-0.317 0.001h-2.393z" />
<glyph unicode="&#xe914;" glyph-name="ic_settings" horiz-adv-x="1043" d="M791.492 58.579c-0.137-1.886-0.214-4.085-0.214-6.303 0-14.689 3.414-28.58 9.492-40.924l-0.242 0.544c1.442-2.027 2.306-4.553 2.306-7.281 0-5.548-3.572-10.262-8.542-11.967l-0.089-0.027c-37.735-21.585-81.411-40.158-127.33-53.451l-4.284-1.062c-2.114-1.002-4.593-1.587-7.209-1.587-7.903 0-14.559 5.341-16.556 12.61l-0.028 0.12c-20.88 43.535-64.606 73.060-115.229 73.060-26.819 0-51.703-8.287-72.23-22.44l0.428 0.279c-19.628-13.227-34.808-31.704-43.688-53.426l-0.284-0.786c-3.614-8.734-7.529-11.746-17.769-9.035-51.834 13.272-97.233 31.525-139.449 54.835l3.016-1.527c-14.758 7.831-8.734 16.866-5.12 26.805 4.846 12.398 7.654 26.752 7.654 41.762 0 32.050-12.804 61.11-33.576 82.344l0.021-0.021c-22.874 25.484-55.92 41.441-92.693 41.441-10.83 0-21.336-1.384-31.352-3.985l0.864 0.191h-5.722c-30.118-9.336-30.118-9.035-44.273 18.372-17.236 31.193-32.683 67.512-44.377 105.477l-1.101 4.152c-3.915 12.348-1.807 18.673 11.445 24.094 45.171 18.059 76.501 61.451 76.501 112.16 0 0.275-0.001 0.549-0.003 0.823v-0.042c-0.157 51.84-32.003 96.203-77.176 114.748l-0.829 0.301c-13.553 4.819-15.962 10.842-12.047 23.793 13.962 48.504 31.914 90.674 54.24 130.036l-1.534-2.94c6.024 10.541 11.746 12.649 23.793 7.831 14.648-6.459 31.727-10.219 49.685-10.219 35.285 0 67.18 14.517 90.038 37.904l0.023 0.024c21.532 21.755 34.835 51.691 34.835 84.733 0 19.022-4.409 37.015-12.26 53.011l0.314-0.709c-4.216 9.638-3.012 15.059 6.024 20.48 39.702 23.013 85.609 42.536 133.977 56.195l4.263 1.029c13.252 3.614 14.758-5.12 18.372-13.252 16.261-41.325 53.282-71.221 97.87-77.036l0.614-0.065c6.241-1.121 13.425-1.762 20.759-1.762 40.852 0 77.059 19.886 99.469 50.507l0.242 0.347c7.452 9.232 13.404 20.047 17.264 31.809l0.204 0.718c3.012 8.433 8.132 9.939 16.264 8.132 52.584-13.65 98.681-32.83 141.232-57.456l-2.691 1.437c9.336-5.12 8.433-11.144 4.819-19.576-6.604-14.774-10.451-32.016-10.451-50.158 0-69.362 56.229-125.591 125.591-125.591 18.623 0 36.299 4.053 52.195 11.326l-0.784-0.321c10.24 4.518 15.962 3.012 21.384-6.927 22.212-37.657 40.917-81.17 53.87-127.095l0.944-3.916c2.711-10.24 0-15.36-10.24-19.878-46.208-16.823-78.61-60.371-78.61-111.487 0-0.299 0.001-0.599 0.003-0.898v0.046c-0.106-1.871-0.166-4.060-0.166-6.264 0-49.766 30.792-92.34 74.362-109.71l0.797-0.28c12.951-6.024 16.264-11.746 12.047-25.6-14.446-47.781-32.562-89.199-54.858-127.907l1.55 2.918c-5.421-10.24-10.842-12.348-22.287-8.132-14.209 5.966-30.724 9.432-48.048 9.432-45.354 0-85.159-23.756-107.651-59.503l-0.31-0.527c-11.029-16.816-17.591-37.422-17.591-59.561 0-1.826 0.045-3.642 0.133-5.446l-0.010 0.254zM520.433 248.32c109.44 1.529 197.571 90.604 197.571 200.264 0 110.613-89.669 200.282-200.282 200.282s-200.282-89.669-200.282-200.282c0-0.205 0-0.411 0.001-0.616v0.032c0.498-110.402 90.11-199.707 200.582-199.707 1.166 0 2.329 0.010 3.49 0.030l-0.175-0.002z" />
<glyph unicode="&#xe915;" glyph-name="ic_star" horiz-adv-x="1091" d="M580.367 938.315l138.541-275.275c5.896-11.391 16.916-19.418 29.924-21.062l0.193-0.020 307.802-43.369c19.209-2.874 33.773-19.258 33.773-39.043 0-11.157-4.631-21.233-12.076-28.409l-0.012-0.012-222.268-210.824c-7.469-7.047-12.118-17.011-12.118-28.062 0-2.538 0.245-5.018 0.713-7.419l-0.040 0.243 52.405-301.176c0.382-2.053 0.6-4.415 0.6-6.828 0-21.624-17.529-39.153-39.153-39.153-6.603 0-12.824 1.635-18.281 4.521l0.213-0.103-277.384 141.252c-5.211 2.713-11.38 4.304-17.92 4.304s-12.709-1.591-18.139-4.408l0.219 0.104-277.384-143.059c-5.244-2.784-11.465-4.418-18.068-4.418-21.624 0-39.153 17.529-39.153 39.153 0 2.413 0.218 4.775 0.636 7.067l-0.036-0.24 52.405 301.176c0.428 2.157 0.674 4.638 0.674 7.175 0 11.051-4.65 21.015-12.099 28.045l-0.019 0.018-222.268 210.824c-8.495 7.281-13.844 18.022-13.844 30.012 0 20.407 15.494 37.196 35.36 39.244l0.169 0.014 308.405 43.972c13.202 1.664 24.221 9.691 30.015 20.864l0.103 0.218 137.939 274.673c6.547 13.010 19.793 21.779 35.087 21.779s28.54-8.769 34.984-21.554l0.103-0.225z" />
<glyph unicode="&#xe916;" glyph-name="ic_live_tv" horiz-adv-x="874" d="M552.056 697.073c0.034-1.021 0.053-2.221 0.053-3.426 0-37.44-18.564-70.543-46.989-90.609l-0.349-0.233c-6.606-3.647-11.007-10.569-11.007-18.519 0-4.318 1.298-8.333 3.526-11.676l-0.048 0.077q98.184-222.268 195.464-444.536c18.673-42.767 37.346-85.534 55.416-128.301 4.030-6.319 6.424-14.022 6.424-22.284 0-16.707-9.786-31.128-23.939-37.843l-0.254-0.108c-5.223-2.449-11.342-3.878-17.795-3.878-19.202 0-35.448 12.654-40.853 30.079l-0.081 0.303c-20.179 44.273-39.755 90.353-58.428 134.024-1.621 9.657-9.919 16.925-19.915 16.925-3.761 0-7.282-1.029-10.296-2.821l0.093 0.051q-174.682-48.489-349.967-94.569c-15.665-3.363-27.993-14.89-32.449-29.813l-0.078-0.305c-3.825-10.243-7.476-18.485-11.527-26.489l0.685 1.491c-6.277-16.715-22.126-28.393-40.702-28.393-6.074 0-11.857 1.249-17.105 3.504l0.282-0.108c-14.79 6.675-24.897 21.293-24.897 38.271 0 8.129 2.317 15.718 6.327 22.14l-0.103-0.176c37.045 81.318 72.282 162.936 107.52 244.254 47.586 109.026 94.871 217.751 142.758 326.475 2.679 3.765 4.284 8.457 4.284 13.524 0 8.554-4.572 16.040-11.406 20.148l-0.106 0.059c-28.841 22.237-47.239 56.799-47.239 95.657 0 14.064 2.41 27.565 6.84 40.113l-0.26-0.844c14.612 51.255 61.024 88.153 116.055 88.153 66.534 0 120.471-53.937 120.471-120.471 0-3.466-0.146-6.898-0.433-10.29l0.030 0.443zM515.313 167.002c-2.409 3.012-2.711 4.819-3.915 5.421l-184.32 67.765c-11.144 3.915-16.866-1.506-21.082-11.445-16.565-38.249-33.431-76.198-50.296-114.146-2.108-5.12-6.626-10.842-2.711-15.962s10.541 0 15.661 0l128.602 34.635c39.153 10.541 78.005 21.986 118.061 33.129zM476.461 411.558c-12.047 27.407-24.998 60.235-40.659 90.353-5.12 9.939-10.24 0-12.348-5.421-18.372-41.261-36.442-82.824-54.212-124.386 0-3.614-5.12-8.132 0-11.144 1.468-0.627 3.176-0.991 4.969-0.991s3.501 0.364 5.054 1.023l-0.085-0.032q44.574 16.264 90.353 33.431c3.614 2.409 9.336 4.819 6.927 17.167zM386.108 291.087l156.009-56.621c3.313 0 7.529-3.012 9.035 0 0.154 0.783 0.242 1.683 0.242 2.604 0 2.711-0.762 5.244-2.084 7.396l0.035-0.062c-11.144 25.901-22.588 51.501-33.732 77.402-1.518 6.661-7.39 11.557-14.406 11.557-2.676 0-5.186-0.712-7.35-1.958l0.072 0.038c-34.033-12.348-67.765-25.299-107.821-40.659zM128.904 448c19.275 13.854 10.842 34.936 0 49.995l-3.313 5.12c-41.447 54.334-66.406 123.184-66.406 197.864 0 65.4 19.142 126.329 52.128 177.491l-0.781-1.294c4.406 7.238 8.777 13.431 13.517 19.314l-0.265-0.34c5.018 6.467 9.898 13.748 14.267 21.359l0.491 0.928c2.413 4.053 3.84 8.938 3.84 14.155s-1.427 10.102-3.911 14.284l0.071-0.129c-4.953 8.003-13.683 13.255-23.64 13.255-0.16 0-0.319-0.001-0.478-0.004h0.024c-12.047 0-20.179-7.228-30.118-18.974-52.529-64.803-84.334-148.269-84.334-239.163 0-0.625 0.002-1.25 0.005-1.875v0.097c-0.001-0.392-0.002-0.857-0.002-1.322 0-89.155 30.503-171.185 81.642-236.225l-0.623 0.822q24.998-32.527 47.887-15.36zM262.325 521.487c19.878 14.155 12.649 33.732 3.012 47.586-28.375 35.592-45.53 81.223-45.53 130.861s17.155 95.269 45.859 131.288l-0.329-0.427c6.325 8.734 18.071 30.118 0 44.875s-30.118 9.035-46.682-10.24c-34.876-45.065-56.555-101.901-58.418-163.718l-0.010-0.423c0.771-62.878 22.165-120.614 57.713-166.913l-0.49 0.664c8.734-10.842 26.202-26.805 44.875-13.553zM744.809 448c-19.275 13.854-10.842 34.936 0 49.995l3.313 5.12c41.447 54.334 66.406 123.184 66.406 197.864 0 65.4-19.142 126.329-52.128 177.491l0.781-1.294c-3.915 6.927-8.734 12.951-12.951 18.974-5.295 6.524-10.277 13.811-14.643 21.493l-0.415 0.794c-2.413 4.053-3.84 8.938-3.84 14.155s1.427 10.102 3.911 14.284l-0.071-0.129c4.953 8.003 13.683 13.255 23.64 13.255 0.16 0 0.319-0.001 0.478-0.004h-0.024c12.047 0 20.179-7.228 30.118-18.974 52.529-64.803 84.334-148.269 84.334-239.163 0-0.625-0.002-1.25-0.005-1.875v0.097c0.001-0.392 0.002-0.857 0.002-1.322 0-89.155-30.503-171.185-81.642-236.225l0.623 0.822q-24.998-32.527-47.887-15.36zM611.388 521.487c-19.878 14.155-12.649 33.732-3.012 47.586 28.375 35.592 45.53 81.223 45.53 130.861s-17.155 95.269-45.859 131.288l0.329-0.427c-6.325 8.734-18.372 30.118 0 44.875s30.118 9.035 46.682-10.24c34.77-45.093 56.348-101.935 58.118-163.738l0.009-0.403c-0.771-62.878-22.165-120.614-57.713-166.913l0.49 0.664c-8.433-10.842-25.901-26.805-44.574-13.553z" />
<glyph unicode="&#xe917;" glyph-name="ic_filter" horiz-adv-x="1078" d="M85.534 960h906.842c47.239 0 85.534-38.295 85.534-85.534v-6.626c0-47.239-38.295-85.534-85.534-85.534h-906.842c-47.239 0-85.534 38.295-85.534 85.534v6.626c0 47.239 38.295 85.534 85.534 85.534zM224.678 532.028h628.555c47.239 0 85.534-38.295 85.534-85.534v-1.205c0-47.239-38.295-85.534-85.534-85.534h-628.555c-47.239 0-85.534 38.295-85.534 85.534v1.205c0 47.239 38.295 85.534 85.534 85.534zM352.678 109.176h372.254c47.239 0 85.534-38.295 85.534-85.534v-2.108c0-47.239-38.295-85.534-85.534-85.534h-372.254c-47.239 0-85.534 38.295-85.534 85.534v2.108c0 47.239 38.295 85.534 85.534 85.534z" />
<glyph unicode="&#xe918;" glyph-name="ic_actor" horiz-adv-x="1085" d="M1079.416 562.748c-11.403 64.785-36.251 122.282-71.634 171.727l0.858-1.261c-55.818 86.588-135.669 153.436-230.111 191.866l-3.301 1.188c-51.351 21.358-111 33.763-173.546 33.763-1.882 0-3.762-0.011-5.639-0.034l0.286 0.003c-74.242-1.759-143.267-22.563-202.841-57.688l1.956 1.067c-2.088-1.58-4.728-2.53-7.59-2.53-0.616 0-1.221 0.044-1.814 0.129l0.068-0.008c-16.962 3.079-37.648 5.545-58.648 6.848l-1.588 0.079c-9.62 0.825-20.817 1.296-32.124 1.296-48.771 0-95.497-8.756-138.692-24.781l2.759 0.897c-55.32-21.387-99.741-60.74-127.065-110.769l-0.634-1.268c0-2.409-3.915-5.12-1.807-7.529s5.12 0 7.529 0c20.216 6.76 44.065 12.15 68.646 15.176l1.829 0.184c2.919 0.427 6.289 0.67 9.716 0.67 9.865 0 19.258-2.018 27.79-5.664l-0.462 0.175c1.807 0 4.216-2.108 3.915-4.819s-2.409-2.409-4.216-3.012-11.746-5.12-17.468-8.132c-57.246-31.332-98.926-85.046-113.552-149.064l-0.293-1.524c-6.173-26.883-9.711-57.753-9.711-89.449s3.538-62.567 10.24-92.237l-0.529 2.788c20.112-99.687 51.459-188.161 93.388-270.336l-2.734 5.903c0-1.807 0-4.518 4.819-3.614 0.069 1.080 0.109 2.343 0.109 3.614s-0.039 2.534-0.117 3.786l0.009-0.172c-2.122 23.756-3.332 51.39-3.332 79.306 0 16.916 0.444 33.729 1.322 50.427l-0.098-2.335c2.143 41.776 8.279 81.046 18.068 118.845l-0.901-4.097c6.237 25.012 15.119 46.977 26.591 67.286l-0.69-1.328c10.556-50.436 44.321-91.249 89.362-111.342l0.991-0.395c6.927-3.915 9.939-2.108 10.842 5.421 2.446 16.541 6.335 31.358 11.641 45.481l-0.497-1.509c24.206 77.879 83.745 138.211 159.382 163.042l1.748 0.497c13.713 5.728 29.646 9.055 46.357 9.055 21.655 0 42.004-5.588 59.685-15.4l-0.63 0.321c30.563-19.089 55.771-43.912 74.731-73.162l0.563-0.928c29.693-44.54 54.732-95.808 72.53-150.348l1.258-4.456c3.614-10.24 4.518-10.842 13.252-4.819 37.504 25.775 69.958 54.976 98.226 87.878l0.56 0.667c35.014 36.387 56.734 85.784 57.223 140.253l0.001 0.096c0 5.12 2.108 5.722 6.024 3.614 11.716-5.659 21.692-13.036 30.070-21.935l0.048-0.051c22.879-25.437 41.269-55.452 53.583-88.431l0.629-1.922c30.128-75.686 53.532-163.968 66.179-255.684l0.682-6.038c0-3.313 0-7.831 3.614-8.734s4.216 3.915 5.722 6.626c25.167 40.726 44.986 87.981 56.877 138.3l0.648 3.253c10.527 41.368 16.569 88.858 16.569 137.759 0 30.89-2.411 61.216-7.054 90.802l0.424-3.281zM756.555 325.722c-77.097-7.493-140.17-60.141-162.865-130.873l-0.372-1.343c-3.012-7.529-4.819-9.638-12.649-5.421-7.816 4.402-17.158 6.995-27.106 6.995s-19.29-2.593-27.388-7.14l0.282 0.145c-9.035-4.518-10.541 0-13.252 6.325-27.343 76.927-99.515 131.018-184.32 131.018-107.785 0-195.162-87.377-195.162-195.162 0-0.002 0-0.004 0-0.006v0c0.177-107.652 87.486-194.852 195.162-194.852 58.836 0 111.592 26.036 147.374 67.215l0.203 0.239c29.71 32.853 47.891 76.621 47.891 124.636 0 0.442-0.002 0.883-0.005 1.324v-0.068c-0.165 1.105-0.259 2.379-0.259 3.676 0 8.942 4.479 16.837 11.315 21.565l0.087 0.057c5.139 3.437 11.459 5.485 18.258 5.485 5.541 0 10.765-1.36 15.354-3.765l-0.182 0.087c8.284-4.103 13.879-12.499 13.879-22.201 0-1.413-0.119-2.798-0.347-4.146l0.020 0.145c-0.008-0.56-0.012-1.222-0.012-1.885 0-7.411 0.552-14.692 1.617-21.806l-0.099 0.802c12.467-97.023 94.545-171.237 193.956-171.237 107.952 0 195.464 87.512 195.464 195.464 0 10.799-0.876 21.393-2.56 31.716l0.152-1.128c-14.378 94.161-94.789 165.461-191.853 165.461-7.959 0-15.806-0.479-23.513-1.411l0.928 0.091zM326.475-28.762c-87.611 1.361-158.111 72.702-158.111 160.509 0 88.657 71.87 160.527 160.527 160.527s160.527-71.87 160.527-160.527c0-0.523-0.003-1.046-0.007-1.567l0.001 0.080c-1.183-88.082-72.864-159.031-161.116-159.031-0.64 0-1.279 0.004-1.918 0.011l0.097-0.001zM778.24-28.762c-88.136 0.684-159.32 72.29-159.32 160.523 0 88.657 71.87 160.527 160.527 160.527s160.527-71.87 160.527-160.527c0-0.316-0.001-0.632-0.003-0.948v0.049c-0.675-88.309-72.419-159.637-160.824-159.637-0.743 0-1.484 0.005-2.225 0.015l0.112-0.001zM486.701 307.953c3.028-4.352 8.005-7.164 13.639-7.164 3.71 0 7.135 1.22 9.897 3.28l-0.044-0.031c4.286 3.098 7.042 8.082 7.042 13.709 0 3.669-1.172 7.065-3.161 9.833l0.034-0.050-53.609 74.993 76.499 20.179-93.967 114.146c-3.117 3.818-7.823 6.237-13.095 6.237-4.075 0-7.812-1.445-10.727-3.85l0.029 0.023c-3.751-3.17-6.117-7.877-6.117-13.138 0-4.042 1.397-7.757 3.734-10.69l-0.027 0.035 60.235-73.487-72.885-19.576z" />
<glyph unicode="&#xe919;" glyph-name="ic_back" horiz-adv-x="1329" d="M1329.393 535.341h-960.151l283.708 283.708-140.951 140.951-512-512 512-512 140.951 140.951-259.614 259.313h936.056v199.078z" />
<glyph unicode="&#xe91a;" glyph-name="ic_imdb" horiz-adv-x="1762" d="M1598.645 960h-1435.106c-90.32 0-163.539-73.219-163.539-163.539v0-696.922c0-90.32 73.219-163.539 163.539-163.539v0h1435.106c90.32 0 163.539 73.219 163.539 163.539v0 696.922c0 90.32-73.219 163.539-163.539 163.539v0zM1650.146 99.539c-0.17-28.375-23.126-51.331-51.485-51.501h-1435.122c-28.375 0.17-51.331 23.126-51.501 51.485v696.938c0.17 28.375 23.126 51.331 51.485 51.501h1435.122c28.375-0.17 51.331-23.126 51.501-51.485v-0.016zM246.965 692.555h89.449v-458.391h-89.449v458.391zM606.268 383.548l-87.341 309.007h-113.845v-458.391h78.607v319.247l84.329-268.348h76.499l84.329 274.673v-325.572h78.607v458.391h-113.845l-87.341-309.007zM1033.939 692.555h-150.588v-458.391h150.588c3.777-0.267 8.184-0.419 12.627-0.419 46.147 0 88.459 16.422 121.41 43.742l-0.315-0.254c29.323 28.212 47.538 67.787 47.538 111.617 0 3.115-0.092 6.208-0.273 9.277l0.020-0.423v130.409c0.139 2.475 0.219 5.372 0.219 8.286 0 43.945-18.065 83.671-47.175 112.157l-0.028 0.027c-32.988 27.57-75.855 44.31-122.631 44.31-4.008 0-7.987-0.123-11.934-0.365l0.541 0.027zM1126.701 395.896c0.085-1.316 0.134-2.853 0.134-4.401 0-21.296-9.21-40.441-23.863-53.67l-0.064-0.057c-16.699-12.886-37.923-20.654-60.961-20.654-2.076 0-4.137 0.063-6.181 0.187l0.281-0.014h-67.162v291.84h67.162c1.905 0.131 4.13 0.206 6.371 0.206 22.889 0 43.96-7.785 60.709-20.851l-0.22 0.165c14.712-13.184 23.926-32.244 23.926-53.457 0-1.537-0.048-3.063-0.144-4.576l0.010 0.207zM1436.311 566.061c-0.178 0.001-0.389 0.002-0.6 0.002-17.816 0-34.259-5.882-47.492-15.811l0.205 0.147c-11.386-9.029-20.763-20.040-27.727-32.576l-0.282-0.554v175.285h-86.438v-458.391h86.438v43.068c6.124-13.388 15.135-24.523 26.291-32.975l0.213-0.155c13.088-9.255 29.376-14.794 46.957-14.794 0.857 0 1.71 0.013 2.56 0.039l-0.125-0.003c1.284-0.061 2.788-0.095 4.301-0.095 31.288 0 59.116 14.817 76.849 37.817l0.168 0.226c18.98 26.686 30.343 59.939 30.343 95.847 0 3.047-0.082 6.074-0.243 9.081l0.018-0.419v51.501c0.143 2.602 0.224 5.648 0.224 8.712 0 36.189-11.357 69.725-30.701 97.238l0.359-0.539c-17.796 22.891-45.337 37.477-76.284 37.477-1.77 0-3.53-0.048-5.277-0.142l0.243 0.010zM1459.802 370.899c0.060-1.075 0.094-2.332 0.094-3.598 0-15.836-5.361-30.42-14.366-42.037l0.117 0.157c-8.604-9.843-21.183-16.026-35.206-16.026-0.859 0-1.712 0.023-2.559 0.069l0.118-0.005c-0.398-0.010-0.865-0.016-1.335-0.016-9.083 0-17.645 2.234-25.165 6.182l0.297-0.142c-7.292 3.783-13.028 9.713-16.469 16.945l-0.095 0.222c-3.627 7.519-5.747 16.351-5.747 25.678 0 0.608 0.009 1.214 0.027 1.818l-0.002-0.089v73.487c-0.022 0.631-0.035 1.371-0.035 2.115 0 9.607 2.122 18.718 5.922 26.89l-0.164-0.394c3.604 7.587 9.311 13.682 16.368 17.667l0.197 0.102c7.223 3.806 15.784 6.040 24.868 6.040 0.469 0 0.937-0.006 1.404-0.018l-0.069 0.001c0.743 0.043 1.612 0.068 2.488 0.068 14.131 0 26.756-6.445 35.097-16.555l0.062-0.077c8.389-11.489 13.422-25.892 13.422-41.471 0-1.728-0.062-3.441-0.184-5.138l0.013 0.228z" />
<glyph unicode="&#xe91b;" glyph-name="ic_link" horiz-adv-x="1048" d="M1030.325 811.821c-36.472 87.691-121.454 148.225-220.574 148.225-1.655 0-3.306-0.017-4.952-0.050l0.246 0.004c-3.361 0.181-7.295 0.284-11.254 0.284-54.84 0-105.054-19.807-143.878-52.658l0.327 0.27c-30.118-24.998-57.525-53.609-85.835-80.715s-60.235-60.235-90.353-90.353c-9.338-8.314-15.191-20.369-15.191-33.79 0-6.514 1.379-12.706 3.86-18.3l-0.114 0.288c5.862-15.985 20.431-27.416 37.814-28.604l0.134-0.007c0.505-0.016 1.098-0.025 1.694-0.025 17.862 0 33.812 8.184 44.306 21.006l0.081 0.102 146.071 145.769c28.015 28.297 66.867 45.818 109.813 45.818 41.281 0 78.781-16.19 106.496-42.566l-0.064 0.061c26.436-26.57 42.779-63.205 42.779-103.657 0-42.223-17.805-80.288-46.316-107.096l-0.076-0.071c-68.367-67.464-137.035-134.325-205.704-201.788-10.403-10.47-22.177-19.559-35.035-26.979l-0.805-0.428c-21.108-11.626-46.265-18.466-73.019-18.466-48.785 0-92.258 22.743-120.394 58.205l-0.243 0.317c-19.576 24.094-38.551 30.118-60.235 21.685-32.226-13.252-37.647-46.682-12.649-78.607 45.802-57.384 115.741-93.831 194.194-93.831 66.707 0 127.259 26.351 171.816 69.212l-0.080-0.077q107.219 103.002 212.932 206.908c44.223 43.333 71.637 103.676 71.637 170.421 0 32.255-6.402 63.015-18.005 91.078l0.58-1.584zM504.169 220.009c-49.995-48.188-99.388-97.28-149.082-145.769-28.049-28.832-67.221-46.72-110.571-46.72-40.934 0-78.143 15.95-105.75 41.973l0.077-0.072c-27.279 26.705-44.192 63.906-44.192 105.058 0 42.901 18.381 81.508 47.697 108.377l0.109 0.099c67.765 66.861 136.132 133.421 204.198 199.981 27.819 29.22 67.011 47.393 110.448 47.393 48.209 0 91.189-22.385 119.114-57.328l0.235-0.305c8.488-12.105 22.378-19.922 38.093-19.922 25.616 0 46.381 20.766 46.381 46.381 0 12.256-4.753 23.401-12.517 31.693l0.024-0.026c-45.804 55.809-114.788 91.135-192.024 91.135-64.703 0-123.616-24.792-167.757-65.394l0.176 0.16c-74.692-70.776-147.576-143.059-220.461-215.944-42.105-42.532-68.119-101.063-68.119-165.67 0-33.514 7-65.393 19.618-94.255l-0.591 1.516c36.633-86.692 120.955-146.421 219.227-146.421 1.705 0 3.406 0.018 5.102 0.054l-0.253-0.004c3.299-0.175 7.162-0.275 11.048-0.275 57.5 0 109.9 21.834 149.362 57.663l-0.184-0.165c60.235 53.308 114.447 110.231 170.767 165.948 8.849 7.922 14.392 19.38 14.392 32.133 0 7.182-1.758 13.953-4.867 19.907l0.113-0.238c-7.634 16.234-23.852 27.272-42.649 27.272-15.072 0-28.487-7.097-37.084-18.132l-0.079-0.105z" />
<glyph unicode="&#xe91c;" glyph-name="ic_auto" horiz-adv-x="1681" d="M280.998 958.494l-222.871 1.506c-0.18 0.002-0.393 0.003-0.606 0.003-31.77 0-57.525-25.755-57.525-57.525 0-0.213 0.001-0.426 0.003-0.638v0.032l1.506-222.871c0.818-32.101 26.628-57.911 58.653-58.728l0.077-0.002c0.027 0 0.059 0 0.090 0 15.854 0 30.203 6.448 40.566 16.864l0.002 0.002c10.418 10.182 16.878 24.375 16.878 40.077 0 0.416-0.005 0.832-0.014 1.246l0.001-0.062v164.442h164.442c0.353-0.008 0.768-0.013 1.185-0.013 15.702 0 29.895 6.46 40.066 16.868l0.010 0.011c10.003 10.373 16.189 24.485 16.263 40.042v0.015c-0.818 32.101-26.628 57.911-58.653 58.728l-0.077 0.002zM1399.567 841.939h164.442v-164.442c-0.008-0.353-0.013-0.768-0.013-1.185 0-15.702 6.46-29.895 16.868-40.066l0.011-0.010c10.366-10.418 24.714-16.866 40.568-16.866 0.032 0 0.064 0 0.095 0h-0.005c0.006 0 0.012 0 0.019 0 32.738 0 59.375 26.117 60.215 58.652l0.002 0.078v222.871c0.013 0.447 0.020 0.973 0.020 1.501 0 16-6.707 30.432-17.464 40.64l-0.025 0.023c-10.548 10.426-25.055 16.866-41.066 16.866-0.068 0-0.137 0-0.205 0h0.011l-222.871-1.506c-0.008 0-0.018 0-0.027 0-32.632 0-59.203-25.948-60.206-58.336l-0.002-0.092c-0.001-0.094-0.001-0.206-0.001-0.318 0-15.972 6.442-30.44 16.87-40.947l-0.004 0.004c10.324-10.444 24.651-16.912 40.488-16.912 0.801 0 1.599 0.017 2.393 0.049l-0.114-0.004zM281.6 61.892h-164.442v164.141c0.027 0.65 0.043 1.413 0.043 2.18 0 15.229-6.11 29.031-16.012 39.089l0.007-0.007c-10.7 9.894-25.063 15.962-40.844 15.962-0.041 0-0.082 0-0.123 0h0.006c-31.999-0.811-57.75-26.456-58.727-58.337l-0.002-0.091v-222.871c-0.004-0.242-0.006-0.527-0.006-0.812 0-15.818 6.452-30.128 16.867-40.444l0.004-0.004c10.181-10.413 24.37-16.869 40.067-16.869 0.208 0 0.416 0.001 0.623 0.003h222.839c32.613 0.841 58.729 27.479 58.729 60.216 0 0.007 0 0.013 0 0.020v-0.001c-0.149 16.048-6.551 30.572-16.883 41.279l0.017-0.018c-11.187 9.977-25.916 16.194-42.089 16.563l-0.076 0.001zM1621.233 283.256c-16.048-0.149-30.572-6.551-41.279-16.883l0.018 0.017c-10.418-10.135-16.881-24.289-16.881-39.952 0-0.46 0.006-0.919 0.017-1.377l-0.001 0.068v-164.141h-164.442c-15.991-0.49-30.417-6.814-41.302-16.903l0.041 0.038c-10.315-10.689-16.717-25.213-16.866-41.232v-0.029c0-33.267 26.968-60.235 60.235-60.235v0h222.871c0.001 0 0.002 0 0.003 0 31.77 0 57.525 25.755 57.525 57.525 0 0.212-0.001 0.423-0.003 0.635v-0.032 222.871c-0.339 32.903-27.007 59.465-59.918 59.633h-0.016zM903.529 866.334l9.638 9.638c8.784 8.956 14.205 21.238 14.205 34.786s-5.421 25.83-14.213 34.794l0.008-0.008c-8.906 9.018-21.269 14.603-34.936 14.603s-26.031-5.585-34.932-14.598l-0.005-0.005-93.064-92.762c-8.925-8.753-14.457-20.937-14.457-34.414 0-0.078 0-0.156 0.001-0.234v0.012c0-0.043 0-0.094 0-0.145 0-13.595 5.526-25.899 14.455-34.789l0.002-0.002 93.064-94.268c8.799-8.927 21.024-14.457 34.54-14.457 0.034 0 0.067 0 0.101 0h-0.005c0.291-0.006 0.634-0.010 0.979-0.010 27.279 0 49.393 22.114 49.393 49.393 0 14.26-6.043 27.108-15.707 36.124l-0.029 0.027-4.216 4.216c143.255-35.187 247.858-162.511 247.858-314.266 0-114.339-59.381-214.81-148.986-272.254l-1.29-0.774c-13.603-8.885-22.467-24.038-22.467-41.261 0-27.129 21.992-49.122 49.122-49.122 9.906 0 19.127 2.932 26.842 7.976l-0.188-0.115c118.499 75.978 195.902 207.012 195.902 356.126 0 208.13-150.798 381.039-349.096 415.429l-2.515 0.361zM819.802 205.553c-8.956 8.784-21.238 14.205-34.786 14.205s-25.83-5.421-34.794-14.213l0.008 0.008c-8.788-8.822-14.221-20.992-14.221-34.43 0-12.191 4.471-23.338 11.864-31.891l-0.052 0.062c-139.655 37.615-240.752 163.124-240.752 312.246 0 114.342 59.439 214.802 149.105 272.165l1.295 0.775c11.965 9.052 19.615 23.261 19.615 39.257 0 27.113-21.979 49.092-49.092 49.092-8.268 0-16.059-2.044-22.894-5.654l0.267 0.129c-118.722-75.939-196.294-207.098-196.294-356.374 0-209.557 152.874-383.409 353.182-416.117l2.434-0.328-14.456-14.456c-8.927-8.891-14.452-21.193-14.452-34.786s5.524-25.895 14.45-34.784l0.002-0.002c8.799-8.927 21.024-14.457 34.54-14.457 0.034 0 0.067 0 0.101 0h-0.005c0.006 0 0.013 0 0.021 0 13.634 0 25.978 5.524 34.916 14.457l92.762 92.762c8.868 8.873 14.377 21.103 14.456 34.62v0.015c-0.166 13.613-5.65 25.913-14.466 34.947l0.010-0.010z" />
<glyph unicode="&#xe91d;" glyph-name="ic_forw15" horiz-adv-x="904" d="M868.292 423.906c0 0-0.001 0-0.001 0-19.794 0-35.84-16.046-35.84-35.84 0-0.106 0-0.212 0.001-0.317v0.016c-0.172-209.952-170.41-380.085-380.386-380.085-210.081 0-380.386 170.305-380.386 380.386 0 209.975 170.133 380.214 380.068 380.386h0.017l-66.861-64.753c-5.968-5.807-9.67-13.916-9.67-22.889s3.702-17.083 9.663-22.882l0.007-0.007c6.019-5.874 14.257-9.497 23.341-9.497s17.323 3.623 23.348 9.504l-0.007-0.007 124.988 123.482c5.968 5.807 9.67 13.916 9.67 22.889s-3.702 17.083-9.663 22.882l-0.007 0.007-124.988 123.482c-6.078 5.738-14.298 9.265-23.341 9.265s-17.263-3.527-23.358-9.281l0.016 0.015c-5.984-5.856-9.694-14.015-9.694-23.040s3.71-17.184 9.689-23.034l0.006-0.006 66.861-65.054c-249.503 0-451.765-202.262-451.765-451.765s202.262-451.765 451.765-451.765c249.503 0 451.765 202.262 451.765 451.765v0c0.001 0.091 0.001 0.199 0.001 0.306 0 19.583-15.705 35.497-35.207 35.835h-0.032zM305.393 417.882v-168.358h60.235v290.936h-49.092l-93.967-74.391 30.118-37.045 33.431 26.805c3.915 3.012 11.144 9.939 21.384 20.179v-30.118zM609.581 488.358v52.104h-157.816l-10.842-148.179 24.395-13.252c5.916 1.929 12.945 3.512 20.175 4.453l0.606 0.064c6.961 1.319 14.979 2.085 23.171 2.108h0.019c39.153 0 58.428-14.456 58.428-43.972s-18.673-46.080-56.32-46.080c-14.091 0.182-27.664 2.038-40.641 5.379l1.187-0.259c-13.948 3.409-26.187 8.162-37.592 14.269l0.849-0.415v-53.308c20.815-9.985 45.249-15.819 71.046-15.819 2.553 0 5.093 0.057 7.619 0.17l-0.359-0.013c2.508-0.176 5.434-0.276 8.384-0.276 29.404 0 56.482 9.962 78.042 26.695l-0.289-0.216c18.652 17.324 30.285 41.984 30.285 69.361 0 1.981-0.061 3.948-0.181 5.9l0.013-0.268c0.072 1.311 0.112 2.846 0.112 4.39 0 23.688-9.595 45.134-25.111 60.665l0.001-0.001c-16.577 14.657-38.499 23.606-62.511 23.606-1.636 0-3.263-0.042-4.878-0.124l0.227 0.009c-0.743 0.014-1.619 0.022-2.497 0.022-9.774 0-19.317-0.995-28.53-2.889l0.91 0.156h-6.927l5.421 56.922z" />
<glyph unicode="&#xe91e;" glyph-name="ic_forw30" horiz-adv-x="904" d="M868.292 423.906c0 0-0.001 0-0.001 0-19.794 0-35.84-16.046-35.84-35.84 0-0.106 0-0.212 0.001-0.317v0.016c-0.172-209.952-170.41-380.085-380.386-380.085-210.081 0-380.386 170.305-380.386 380.386 0 209.975 170.133 380.214 380.068 380.386h0.017l-66.861-64.753c-5.968-5.807-9.67-13.916-9.67-22.889s3.702-17.083 9.663-22.882l0.007-0.007c6.019-5.874 14.257-9.497 23.341-9.497s17.323 3.623 23.348 9.504l-0.007-0.007 124.988 123.482c5.968 5.807 9.67 13.916 9.67 22.889s-3.702 17.083-9.663 22.882l-0.007 0.007-124.988 123.482c-6.078 5.738-14.298 9.265-23.341 9.265s-17.263-3.527-23.358-9.281l0.016 0.015c-5.984-5.856-9.694-14.015-9.694-23.040s3.71-17.184 9.689-23.034l0.006-0.006 66.861-65.054c-249.503 0-451.765-202.262-451.765-451.765s202.262-451.765 451.765-451.765c249.503 0 451.765 202.262 451.765 451.765v0c0.001 0.091 0.001 0.199 0.001 0.306 0 19.583-15.705 35.497-35.207 35.835h-0.032zM309.609 292.894c-1.331-0.040-2.896-0.062-4.467-0.062-13.489 0-26.589 1.67-39.103 4.815l1.103-0.235c-14.927 3.742-27.961 8.693-40.217 14.949l1.064-0.493v-55.115c24.798-10.507 53.636-16.614 83.901-16.614 1.633 0 3.263 0.018 4.887 0.053l-0.242-0.004c2.549-0.158 5.528-0.248 8.529-0.248 30.52 0 58.862 9.321 82.336 25.273l-0.511-0.328c19.722 15.117 32.313 38.684 32.313 65.192 0 1.328-0.032 2.65-0.094 3.963l0.007-0.185c0.048 0.918 0.075 1.993 0.075 3.074 0 17.685-7.293 33.666-19.035 45.101l-0.014 0.013c-15.25 12.824-34.695 21.112-56.017 22.572l-0.303 0.017c19.473 4.056 36.19 13.906 48.727 27.638l0.063 0.070c10.872 12.538 17.497 29.016 17.497 47.041 0 0.721-0.011 1.44-0.032 2.156l0.002-0.105c0.242 2.029 0.381 4.38 0.381 6.763 0 20.84-10.583 39.208-26.669 50.023l-0.216 0.137c-19.26 12.22-42.717 19.474-67.868 19.474-2.506 0-4.996-0.072-7.467-0.214l0.342 0.016c-1.365 0.040-2.97 0.063-4.581 0.063-35.839 0-69.040-11.3-96.233-30.531l0.522 0.35 30.118-44.875c9.97 6.951 21.422 12.859 33.631 17.16l1.004 0.308c8.958 3.054 19.285 4.912 30.017 5.118l0.1 0.002c30.118 0 43.671-11.445 43.671-34.936 0.085-0.894 0.133-1.933 0.133-2.983 0-12.302-6.645-23.052-16.541-28.856l-0.157-0.085c-13.103-6.061-28.437-9.597-44.597-9.597-2.641 0-5.261 0.094-7.855 0.28l0.348-0.020h-22.889v-49.694h23.191c2.363 0.152 5.124 0.239 7.905 0.239 17.436 0 34.076-3.406 49.292-9.589l-0.877 0.315c10.466-4.871 17.592-15.298 17.592-27.389 0-0.961-0.045-1.911-0.133-2.848l0.009 0.12c0.094-1.028 0.148-2.223 0.148-3.431 0-12.788-6.038-24.165-15.418-31.437l-0.091-0.068c-12.373-7.803-27.425-12.432-43.558-12.432-1.311 0-2.614 0.031-3.91 0.091l0.183-0.007zM481.882 518.776c-16.872-30.085-26.809-66.026-26.809-104.287 0-5.695 0.22-11.339 0.652-16.924l-0.046 0.74c-0.317-4.329-0.497-9.378-0.497-14.469 0-37.711 9.901-73.109 27.246-103.736l-0.546 1.048c16.46-24.209 43.875-39.903 74.956-39.903 1.814 0 3.616 0.053 5.403 0.159l-0.247-0.012c2.038-0.164 4.413-0.257 6.809-0.257 30.614 0 57.672 15.226 74.015 38.518l0.192 0.289c17.035 29.746 27.081 65.385 27.081 103.37 0 5.488-0.21 10.927-0.622 16.31l0.044-0.715c0.27 3.998 0.424 8.665 0.424 13.369 0 38.52-10.331 74.627-28.372 105.701l0.541-1.009c-16.415 24.541-44.018 40.484-75.344 40.484-1.678 0-3.345-0.046-5-0.136l0.231 0.010c-1.779 0.125-3.855 0.196-5.948 0.196-30.588 0-57.626-15.2-73.973-38.459l-0.192-0.288zM595.125 480.226c6.709-20.587 10.578-44.277 10.578-68.871 0-4.378-0.123-8.728-0.365-13.046l0.027 0.599c0.191-3.542 0.3-7.689 0.3-11.861 0-24.46-3.743-48.046-10.688-70.215l0.449 1.662c-4.273-14.419-17.312-24.794-32.805-24.997h-0.023c-0.030 0-0.065 0-0.101 0-15.471 0-28.53 10.323-32.667 24.456l-0.060 0.241c-6.511 20.462-10.264 43.998-10.264 68.41 0 4.329 0.118 8.63 0.351 12.9l-0.026-0.595c-0.197 3.629-0.31 7.876-0.31 12.15 0 24.673 3.746 48.472 10.701 70.857l-0.452-1.69c4.254 14.286 17.27 24.524 32.678 24.524s28.424-10.239 32.616-24.283l0.062-0.241z" />
<glyph unicode="&#xe91f;" glyph-name="ic_forward" horiz-adv-x="1117" d="M0-64l498.447 412.612v-412.612l618.616 512-618.616 512v-412.612l-498.447 412.612z" />
<glyph unicode="&#xe920;" glyph-name="ic_lock" horiz-adv-x="1694" d="M1061.948 517.873h-4.819v69.572c0 116.435-94.389 210.824-210.824 210.824s-210.824-94.389-210.824-210.824v0-69.572h-3.012c-25.818-0.171-46.682-21.14-46.682-46.983 0 0 0-0.001 0-0.001v0-325.873c0-25.782 20.9-46.682 46.682-46.682v0h429.478c0.090-0.001 0.196-0.001 0.302-0.001 25.616 0 46.381 20.766 46.381 46.381 0 0.106 0 0.212-0.001 0.318v-0.016 325.873c0.001 0.089 0.001 0.195 0.001 0.301 0 25.782-20.9 46.682-46.682 46.682 0 0-0.001 0-0.001 0v0zM965.572 522.391h-237.026v65.054c-0.096 1.785-0.151 3.874-0.151 5.976 0 65.536 53.127 118.664 118.664 118.664s118.664-53.127 118.664-118.664c0-2.102-0.055-4.192-0.163-6.267l0.012 0.291zM283.106 958.494l-222.871 1.506c-0.461 0.013-1.003 0.020-1.547 0.020-16.254 0-31.004-6.438-41.84-16.903l0.018 0.017c-10.382-10.76-16.799-25.405-16.866-41.549v-0.013l1.506-224.678c0-33.267 26.968-60.235 60.235-60.235v0h-1.506c0.042 0 0.092 0 0.142 0 15.933 0 30.361 6.444 40.82 16.868l-0.002-0.002c11.845 10.481 19.275 25.72 19.275 42.695 0 0.025 0 0.051 0 0.076v-0.004 165.647h165.647c0.44-0.012 0.959-0.020 1.479-0.020 15.705 0 29.901 6.463 40.073 16.875l0.011 0.011c9.018 10.030 14.534 23.367 14.534 37.992 0 1.044-0.028 2.082-0.084 3.112l0.006-0.144c-0.824 32.203-26.801 58.074-58.968 58.728l-0.062 0.001zM1410.409 839.529h165.346v-165.647c0.066-16.157 6.484-30.803 16.883-41.58l-0.017 0.018c10.689-10.315 25.213-16.717 41.232-16.866h0.029c33.267 0 60.235 26.968 60.235 60.235v0 224.376c0.029 0.681 0.046 1.481 0.046 2.284 0 15.986-6.59 30.432-17.201 40.772l-0.012 0.012c-10.76 10.382-25.405 16.799-41.549 16.866h-0.013l-224.678-1.506c-33.267 0-60.235-26.968-60.235-60.235v0c0.066-16.157 6.484-30.803 16.883-41.58l-0.017 0.018c10.49-10.621 25.051-17.199 41.149-17.199 0.675 0 1.347 0.012 2.016 0.034l-0.097-0.003zM283.708 54.965h-165.647v165.647c0.007 0.33 0.011 0.719 0.011 1.109 0 15.82-6.454 30.133-16.872 40.449l-0.005 0.005c-10.822 9.753-25.17 15.778-40.922 15.962h-0.038c-33.267 0-60.235-26.968-60.235-60.235v0-224.678c0.066-16.157 6.484-30.803 16.883-41.58l-0.017 0.018c10.657-9.715 24.893-15.666 40.52-15.666 0.261 0 0.521 0.002 0.781 0.005h224.939c33.267 0 60.235 26.968 60.235 60.235v0c0.007 0.33 0.011 0.719 0.011 1.109 0 15.82-6.454 30.133-16.872 40.449l-0.005 0.005c-11.227 10.39-26.213 16.861-42.706 17.166l-0.061 0.001zM1633.581 278.136c-16.229-0.211-30.929-6.591-41.896-16.896l0.033 0.031c-10.382-10.76-16.799-25.405-16.866-41.549v-165.66h-165.346c-16.219-0.273-30.901-6.639-41.901-16.9l0.037 0.034c-9.894-10.7-15.962-25.063-15.962-40.844 0-0.041 0-0.082 0-0.123v0.006c0-33.267 26.968-60.235 60.235-60.235v0h224.678c15.973 0.030 30.437 6.464 40.966 16.871l-0.006-0.006c10.427 10.321 16.883 24.637 16.883 40.46 0 0.493-0.006 0.986-0.019 1.476l0.001-0.073v224.376c-0.674 32.746-27.379 59.034-60.223 59.034-0.216 0-0.432-0.001-0.647-0.003h0.033z" />
<glyph unicode="&#xe921;" glyph-name="ic_rew15" horiz-adv-x="904" d="M453.572 839.529l65.656 64.753c5.838 5.923 9.443 14.060 9.443 23.040s-3.605 17.117-9.447 23.044l0.004-0.004c-6.078 5.738-14.298 9.265-23.341 9.265s-17.263-3.527-23.358-9.281l0.016 0.015-124.988-123.482c-5.968-5.807-9.67-13.916-9.67-22.889s3.702-17.083 9.663-22.882l0.007-0.007 124.988-122.278c6.019-5.874 14.257-9.497 23.341-9.497s17.323 3.623 23.348 9.504l-0.007-0.007c5.893 5.842 9.541 13.94 9.541 22.889s-3.648 17.048-9.539 22.887l-0.002 0.002-65.355 63.849c209.303-1.026 378.579-170.936 378.579-380.382 0-210.081-170.305-380.386-380.386-380.386-209.974 0-380.212 170.131-380.386 380.064v0.017c0 19.794-16.046 35.84-35.84 35.84s-35.84-16.046-35.84-35.84v0c0.002-249.501 202.263-451.761 451.765-451.761s451.765 202.262 451.765 451.765c0 248.868-201.234 450.735-449.86 451.761h-0.097zM285.816 455.831c3.915 3.012 11.144 9.939 21.384 20.179v-226.184h60.235v290.635h-50.899l-93.967-74.391 30.118-37.045zM512 295.605c-14.091 0.182-27.664 2.038-40.641 5.379l1.187-0.259c-13.948 3.409-26.187 8.162-37.592 14.269l0.849-0.415v-53.308c20.815-9.985 45.249-15.819 71.046-15.819 2.553 0 5.093 0.057 7.619 0.17l-0.359-0.013c2.508-0.176 5.434-0.276 8.384-0.276 29.404 0 56.482 9.962 78.042 26.695l-0.289-0.216c18.652 17.324 30.285 41.984 30.285 69.361 0 1.981-0.061 3.948-0.181 5.9l0.013-0.268c0.072 1.311 0.112 2.846 0.112 4.39 0 23.688-9.595 45.134-25.111 60.665l0.001-0.001c-16.577 14.657-38.499 23.606-62.511 23.606-1.636 0-3.263-0.042-4.878-0.124l0.227 0.009c-0.743 0.014-1.619 0.022-2.497 0.022-9.774 0-19.317-0.995-28.53-2.889l0.91 0.156h-6.927l5.421 56.922h103.906v50.899h-158.72l-10.842-148.179 24.395-13.252c5.916 1.929 12.945 3.512 20.175 4.453l0.606 0.064c6.961 1.319 14.979 2.085 23.171 2.108h0.019c39.153 0 58.428-14.456 58.428-43.972s-18.974-46.080-55.718-46.080z" />
<glyph unicode="&#xe922;" glyph-name="ic_rew30" horiz-adv-x="904" d="M453.572 839.529l65.656 64.753c5.838 5.923 9.443 14.060 9.443 23.040s-3.605 17.117-9.447 23.044l0.004-0.004c-6.078 5.738-14.298 9.265-23.341 9.265s-17.263-3.527-23.358-9.281l0.016 0.015-124.988-123.482c-5.968-5.807-9.67-13.916-9.67-22.889s3.702-17.083 9.663-22.882l0.007-0.007 124.988-122.278c6.019-5.874 14.257-9.497 23.341-9.497s17.323 3.623 23.348 9.504l-0.007-0.007c5.893 5.842 9.541 13.94 9.541 22.889s-3.648 17.048-9.539 22.887l-0.002 0.002-65.355 63.849c209.303-1.026 378.579-170.936 378.579-380.382 0-210.081-170.305-380.386-380.386-380.386-209.974 0-380.212 170.131-380.386 380.064v0.017c0 19.794-16.046 35.84-35.84 35.84s-35.84-16.046-35.84-35.84v0c0.002-249.501 202.263-451.761 451.765-451.761s451.765 202.262 451.765 451.765c0 248.868-201.234 450.735-449.86 451.761h-0.097zM397.854 259.765c19.526 15.182 31.969 38.677 31.969 65.077 0 0.945-0.016 1.887-0.048 2.824l0.004-0.136c0.045 0.896 0.071 1.945 0.071 3 0 17.802-7.285 33.902-19.037 45.482l-0.008 0.008c-15.368 12.585-34.741 20.816-55.953 22.564l-0.367 0.024c19.473 4.056 36.19 13.906 48.727 27.638l0.063 0.070c11.466 12.534 18.491 29.298 18.491 47.702 0 1.442-0.043 2.875-0.128 4.296l0.009-0.196c0.026 0.67 0.041 1.458 0.041 2.248 0 21.41-10.792 40.299-27.233 51.524l-0.215 0.138c-19.56 12.203-43.312 19.438-68.754 19.438-2.3 0-4.587-0.059-6.858-0.176l0.318 0.013c-1.337 0.038-2.911 0.060-4.49 0.060-35.869 0-69.1-11.298-96.327-30.53l0.525 0.352 30.118-44.574c9.973 6.804 21.41 12.7 33.555 17.124l1.081 0.344c8.983 2.962 19.327 4.717 30.067 4.818h0.050c30.118 0 43.369-11.445 43.369-34.635 0.095-0.944 0.149-2.041 0.149-3.15 0-12.185-6.519-22.848-16.261-28.69l-0.152-0.084c-13.157-6.053-28.547-9.583-44.761-9.583-2.583 0-5.146 0.090-7.685 0.266l0.343-0.019h-23.793v-49.995h23.191c2.407 0.159 5.219 0.249 8.052 0.249 17.386 0 33.976-3.41 49.137-9.598l-0.869 0.314c10.466-4.871 17.592-15.298 17.592-27.389 0-0.961-0.045-1.911-0.133-2.848l0.009 0.12c0.098-1.057 0.153-2.285 0.153-3.526 0-12.788-5.904-24.197-15.135-31.651l-0.077-0.060c-11.918-6.956-26.237-11.063-41.516-11.063-2.136 0-4.253 0.080-6.349 0.238l0.279-0.017c-15.116 0.017-29.737 2.105-43.604 5.995l1.138-0.273c-14.965 3.92-27.985 8.964-40.249 15.27l1.096-0.512v-55.416c25.227-10.494 54.531-16.588 85.258-16.588 1.156 0 2.31 0.009 3.462 0.026l-0.174-0.002c3.146-0.234 6.816-0.368 10.516-0.368 30.213 0 58.348 8.897 81.927 24.215l-0.584-0.356zM551.755 235.068c1.892-0.141 4.099-0.222 6.324-0.222 30.728 0 57.873 15.339 74.197 38.778l0.195 0.295c17.099 29.79 27.184 65.493 27.184 103.551 0 5.955-0.247 11.853-0.731 17.683l0.051-0.764c0.279 4.059 0.437 8.798 0.437 13.573 0 38.315-10.221 74.243-28.086 105.206l0.542-1.019c-16.413 24.55-44.021 40.499-75.354 40.499-1.78 0-3.548-0.051-5.302-0.153l0.242 0.011c-1.952 0.15-4.227 0.236-6.523 0.236-30.605 0-57.656-15.217-74-38.497l-0.192-0.289c-16.875-30.062-26.815-65.981-26.815-104.22 0-5.719 0.222-11.386 0.659-16.993l-0.046 0.742c-0.299-4.203-0.469-9.106-0.469-14.049 0-38.123 10.119-73.882 27.817-104.739l-0.544 1.028c16.389-24.716 44.090-40.79 75.546-40.79 1.712 0 3.414 0.048 5.103 0.142l-0.235-0.010zM518.927 473.901c4.197 14.374 17.257 24.697 32.727 24.697 0.036 0 0.071 0 0.106 0h-0.006c0.008 0 0.018 0 0.028 0 15.414 0 28.412-10.338 32.441-24.459l0.058-0.238c6.71-20.503 10.579-44.098 10.579-68.597 0-4.369-0.123-8.709-0.366-13.017l0.027 0.598c0.195-3.586 0.306-7.783 0.306-12.007 0-24.514-3.745-48.153-10.695-70.377l0.45 1.668c-4.441-14.173-17.455-24.277-32.828-24.277s-28.387 10.104-32.762 24.034l-0.066 0.243c-6.339 20.378-9.99 43.807-9.99 68.089 0 4.547 0.128 9.065 0.381 13.549l-0.028-0.622c-0.174 3.459-0.273 7.51-0.273 11.585 0 24.638 3.621 48.429 10.36 70.872l-0.449-1.742z" />
<glyph unicode="&#xe923;" glyph-name="ic_rewind" horiz-adv-x="1117" d="M1117.064-64l-498.447 412.612v-412.612l-618.616 512 618.616 512v-412.612l498.447 412.612z" />
<glyph unicode="&#xe924;" glyph-name="ic_share" d="M846.005 280.546c-62.726-0.19-117.909-32.308-150.171-80.95l-0.417-0.669-295.755 96.979c2.298 11.196 3.614 24.064 3.614 37.239 0 0.038 0 0.075 0 0.113v-0.006c0 0.039 0 0.085 0 0.132 0 29.541-6.893 57.472-19.159 82.272l0.486-1.086 221.967 143.059c42.092-37.259 97.727-60.066 158.685-60.235h0.035c0.81-0.010 1.768-0.016 2.726-0.016 128.794 0 233.38 103.646 234.901 232.079l0.001 0.144c0 131.737-106.794 238.532-238.532 238.532s-238.532-106.794-238.532-238.532v0c0.012-33.532 7.447-65.325 20.752-93.828l-0.573 1.367-227.087-146.372c-32.873 23.074-73.687 36.92-117.729 37.045h-0.031c-0.905 0.015-1.974 0.023-3.044 0.023-108.186 0-196.124-86.69-198.139-194.395l-0.003-0.189c2.017-107.893 89.956-194.583 198.142-194.583 1.070 0 2.139 0.008 3.205 0.025l-0.161-0.002c0.108 0 0.235 0 0.363 0 60.485 0 114.818 26.336 152.159 68.168l0.175 0.2 313.826-103.002c-0.004-0.448-0.006-0.976-0.006-1.506 0-98.47 79.826-178.296 178.296-178.296s178.296 79.826 178.296 178.296c0 98.468-79.823 178.293-178.29 178.296v0zM923.106 108.273c0.054-1.079 0.084-2.343 0.084-3.614 0-42.748-34.654-77.402-77.402-77.402s-77.402 34.654-77.402 77.402c0 42.748 34.654 77.402 77.402 77.402 0.076 0 0.152 0 0.229 0h-0.012c0.455 0.010 0.99 0.015 1.527 0.015 41.12 0 74.572-32.831 75.572-73.711l0.002-0.093zM626.748 729.6c3.537 73.358 63.873 131.495 137.788 131.495s134.251-58.137 137.776-131.179l0.012-0.316c-3.537-73.358-63.873-131.495-137.788-131.495s-134.251 58.137-137.776 131.179l-0.012 0.316zM301.176 333.252c-1.34-53.35-44.907-96.087-98.456-96.087-0.54 0-1.078 0.004-1.616 0.013l0.081-0.001c-1.607-0.096-3.486-0.151-5.377-0.151-53.061 0-96.075 43.014-96.075 96.075s43.014 96.075 96.075 96.075c1.892 0 3.77-0.055 5.635-0.162l-0.258 0.012c0.459 0.008 1 0.012 1.543 0.012 53.443 0 96.943-42.568 98.445-95.648l0.003-0.139z" />
<glyph unicode="&#xe925;" glyph-name="ic_sidebar" horiz-adv-x="1395" d="M87.341 960h1220.668c48.237 0 87.341-39.104 87.341-87.341v0.301c0-48.237-39.104-87.341-87.341-87.341h-1220.668c-48.237 0-87.341 39.104-87.341 87.341v-0.301c0 48.237 39.104 87.341 87.341 87.341zM458.993 535.341h849.016c48.237 0 87.341-39.104 87.341-87.341v0.301c0-48.237-39.104-87.341-87.341-87.341h-849.016c-48.237 0-87.341 39.104-87.341 87.341v-0.301c0 48.237 39.104 87.341 87.341 87.341zM243.049 110.381h1064.96c48.237 0 87.341-39.104 87.341-87.341v0.301c0-48.237-39.104-87.341-87.341-87.341h-1064.96c-48.237 0-87.341 39.104-87.341 87.341v-0.301c0 48.237 39.104 87.341 87.341 87.341z" />
<glyph unicode="&#xe926;" glyph-name="ic_sub" horiz-adv-x="1333" d="M1333.308 601.901v243.351c0.031 0.969 0.049 2.109 0.049 3.253 0 21.972-6.536 42.418-17.77 59.5l0.253-0.409c-19.663 31.687-54.263 52.473-93.719 52.473-1.358 0-2.711-0.025-4.057-0.073l0.195 0.006h-813.176c-96.979 0-194.259 0-292.744 0-7.894-0.185-15.467-1.054-22.811-2.55l0.825 0.14c-36.111-6.338-65.521-30.169-79.545-62.261l-0.267-0.685c-2.245-5.037-4.405-11.148-6.111-17.446l-0.214-0.926c-2.32-8.916-3.835-19.246-4.209-29.867l-0.007-0.25v-684.574c-0.035-1.030-0.055-2.24-0.055-3.456 0-22.006 6.538-42.485 17.777-59.601l-0.254 0.412c19.765-31.522 54.322-52.172 93.701-52.172 1.364 0 2.723 0.025 4.075 0.074l-0.196-0.006q200.885 0 402.071 0h402.372l93.365-93.365c10.932-11.096 26.122-17.97 42.918-17.97s31.986 6.874 42.91 17.962l93.071 93.071h30.118c7.981 0.146 15.675 0.907 23.171 2.238l-0.884-0.13c36.076 6.614 65.417 30.48 79.541 62.558l0.271 0.689c2.22 5.098 4.285 11.223 5.85 17.544l0.173 0.828v1.506c1.887 8.049 3.181 17.451 3.603 27.079l0.011 0.328v442.729zM1235.125 601.901c0-15.059 0-30.118 0-44.875s0-22.889 0-34.635v-342.438c0-14.155 1.506-31.925-20.179-34.635h-61.139l-97.882-97.882-98.184 97.581h-831.548c-1.244-0.182-2.681-0.286-4.142-0.286-6.98 0-13.406 2.375-18.513 6.36l0.067-0.050c-3.781 4.979-6.056 11.281-6.056 18.114 0 1.579 0.121 3.129 0.356 4.642l-0.021-0.169v605.666c0 15.059 0 30.118 0 45.176s0 33.732 20.179 36.442h1089.054c1.146 0.154 2.47 0.243 3.815 0.243 7.127 0 13.675-2.475 18.833-6.613l-0.059 0.046c3.914-5.032 6.275-11.441 6.275-18.401 0-1.37-0.091-2.719-0.269-4.040l0.017 0.154v-71.981c0-18.974 0-37.647 0-56.32zM254.494 503.416h223.473c28.111 0 50.899-22.788 50.899-50.899v0 0c0-28.111-22.788-50.899-50.899-50.899v0h-223.473c-28.277 0-51.2 22.923-51.2 51.2v0 0c0 28.277 22.923 51.2 51.2 51.2v0zM636.988 503.416h447.247c28.111 0 50.899-22.788 50.899-50.899v0 0c0.001-0.089 0.001-0.195 0.001-0.301 0-28.111-22.788-50.899-50.899-50.899 0 0-0.001 0-0.001 0h-447.247c-28.277 0-51.2 22.923-51.2 51.2v0 0c0 28.277 22.923 51.2 51.2 51.2v0zM1084.235 338.974h-222.268c-1.175 0.096-2.543 0.151-3.924 0.151-28.277 0-51.2-22.923-51.2-51.2s22.923-51.2 51.2-51.2c1.381 0 2.749 0.055 4.103 0.162l-0.179-0.011h222.268c1.175-0.096 2.543-0.151 3.924-0.151 28.277 0 51.2 22.923 51.2 51.2s-22.923 51.2-51.2 51.2c-1.381 0-2.749-0.055-4.103-0.162l0.179 0.011zM702.946 338.974h-448.452c-1.175 0.096-2.543 0.151-3.924 0.151-28.277 0-51.2-22.923-51.2-51.2s22.923-51.2 51.2-51.2c1.381 0 2.749 0.055 4.103 0.162l-0.179-0.011h448.452c26.537 2.101 47.276 24.153 47.276 51.049s-20.739 48.948-47.097 51.038l-0.179 0.011z" />
<glyph unicode="&#xe927;" glyph-name="ic_vlc" horiz-adv-x="1456" d="M120.471 171.219v0zM120.471 448v0zM1334.513 448c0-87.944 0-176.188 0-264.433v264.433zM1334.814 184.169v0zM1455.586 853.082c0.048 1.166 0.076 2.534 0.076 3.908 0 36.503-19.385 68.478-48.422 86.193l-0.444 0.252c-15.494 10.402-34.566 16.602-55.086 16.602-0.963 0-1.923-0.014-2.88-0.041l0.141 0.003h-1242.353c-0.947 0.032-2.060 0.051-3.177 0.051-20.336 0-39.251-6.089-55.018-16.544l0.369 0.23c-29.488-17.965-48.878-49.944-48.878-86.452 0-1.478 0.032-2.948 0.095-4.411l-0.007 0.208q0-195.464 0-391.529v-254.494c0-55.416 0-111.134 0-166.551 0-0.062 0-0.136 0-0.21 0-7.178 0.768-14.177 2.226-20.918l-0.118 0.649c5.957-33.487 27.898-60.803 57.496-74.136l0.631-0.254c4.826-2.087 10.649-4.048 16.653-5.55l0.816-0.173c7.959-2.212 17.152-3.623 26.628-3.911l0.177-0.004h159.624l50.296 118.965h-113.845c-13.553 0-27.106 0-40.659 0s-35.539-1.506-39.454 23.191c0 1.807 0 5.12 0 7.831v723.426c-0.186 1.257-0.292 2.708-0.292 4.184 0 7.648 2.851 14.631 7.548 19.943l-0.028-0.032c5.236 4.513 12.104 7.262 19.614 7.262 1.581 0 3.134-0.122 4.649-0.357l-0.169 0.022 119.266-0.904h1032.433c1.347 0.213 2.899 0.335 4.48 0.335 7.51 0 14.378-2.749 19.653-7.295l-0.039 0.033c4.669-5.28 7.52-12.262 7.52-19.911 0-1.476-0.106-2.927-0.311-4.346l0.019 0.162v-721.92c0-2.711 0-6.024 0-7.831-3.012-24.696-24.094-23.793-38.551-23.191s-27.106 0-40.358 0h-90.353l53.308-119.567h131.915c9.769 0.314 19.065 1.723 27.961 4.111l-0.855-0.195c6.77 1.745 12.485 3.702 18.003 6.036l-0.836-0.314c30.281 13.459 52.315 40.667 58.335 73.476l0.093 0.614c1.341 6.093 2.108 13.092 2.108 20.27 0 0.074 0 0.148 0 0.222v-0.011c0 54.513 0 109.327 0 163.84v257.807q0 195.162 0 391.529zM1011.049 172.424c-16.565 52.104-16.565 52.104-70.776 49.092h-1.807c-9.939 0-15.059-3.614-12.348-14.758 0.531-2.332 0.835-5.009 0.835-7.758 0-12.322-6.116-23.216-15.478-29.812l-0.115-0.077c-15.745-13.456-34.58-23.811-55.256-29.851l-1.064-0.266c-34.282-10.196-73.673-16.064-114.434-16.064-25.119 0-49.717 2.228-73.608 6.498l2.517-0.373c-37.051 3.835-70.295 17.614-97.746 38.591l0.466-0.342c-10.332 7.17-17.229 18.663-18.064 31.803l-0.006 0.122c0 22.588 0 22.588-24.395 22.287-5.722 0-11.445 0-17.167 0-1.456 0.25-3.134 0.392-4.845 0.392-15.071 0-27.557-11.070-29.769-25.523l-0.021-0.168c-20.179-66.861-41.562-133.421-62.344-200.282-3.24-9.697-5.684-21.038-6.871-32.752l-0.056-0.679c-0.365-1.39-0.574-2.987-0.574-4.632 0-10.479 8.495-18.974 18.974-18.974 0.733 0 1.456 0.042 2.167 0.122l-0.087-0.008c15.661 0 30.118-2.409 46.381-2.409h266.541c93.967 0 187.934 0 281.901 0 49.694 0 56.621 9.638 42.165 57.224q-26.805 89.148-55.115 178.598zM625.845 440.772q-15.059-51.2-30.118-102.099c-7.529-25.299-4.518-34.334 19.576-46.682 9.067-4.813 19.658-9.119 30.709-12.345l1.215-0.304c22.241-6.944 47.813-10.944 74.319-10.944 6.702 0 13.345 0.256 19.919 0.758l-0.873-0.054c12.649 0 25.299 0 37.647 0 36.755 1.226 70.844 11.582 100.397 28.855l-1.008-0.544c8.734 5.722 17.167 13.252 13.854 25.299-11.746 40.659-24.395 81.016-36.744 120.471-1.506 5.421-3.313 9.035-10.541 5.722-30.516-12.921-66.001-20.431-103.24-20.431-16.733 0-33.112 1.516-49.008 4.419l1.66-0.252c-18.698 1.095-35.89 6.662-50.796 15.639l0.499-0.279c-10.842 6.927-14.456 3.614-17.468-7.228zM798.419 583.228c10.541 2.409 12.951 9.035 9.638 19.275-5.722 18.071-10.24 36.442-16.264 54.212-10.541 32.527-15.661 35.84-49.092 35.84s-43.369-5.12-53.609-39.755c-5.12-16.866-9.939-34.033-15.36-50.899-3.012-9.638 0-15.962 9.336-18.372 17.486-4.687 37.562-7.38 58.267-7.38 20.276 0 39.948 2.582 58.707 7.435l-1.623-0.356z" />
<glyph unicode="&#xe928;" glyph-name="ic_warning" horiz-adv-x="1195" d="M1186.334 26.353l-535.191 903.529c-11.269 18.094-31.054 29.958-53.609 29.958s-42.341-11.864-53.455-29.692l-0.155-0.266-535.492-903.529c-5.080-8.644-8.080-19.039-8.080-30.135 0-33.267 26.968-60.235 60.235-60.235 0.511 0 1.021 0.006 1.53 0.019l-0.075-0.001h1070.682c0.433-0.011 0.943-0.018 1.454-0.018 33.267 0 60.235 26.968 60.235 60.235 0 11.096-3 21.492-8.234 30.419l0.154-0.284zM672.226 731.708l-36.442-484.292h-74.692l-36.442 484.292zM660.781 15.511c-15.491-13.914-36.082-22.423-58.661-22.423-1.719 0-3.427 0.049-5.122 0.147l0.235-0.011c-0.714-0.020-1.555-0.031-2.398-0.031-21.905 0-42.060 7.495-58.039 20.061l0.202-0.153c-15.075 14.492-24.439 34.828-24.439 57.351 0 2.606 0.125 5.183 0.371 7.725l-0.025-0.323c-0.487 3.216-0.765 6.927-0.765 10.703 0 41.584 33.71 75.294 75.294 75.294 3.776 0 7.487-0.278 11.114-0.815l-0.411 0.050c1.705 0.117 3.694 0.184 5.7 0.184 22.322 0 42.707-8.288 58.248-21.954l-0.098 0.085c13.948-15.044 22.506-35.258 22.506-57.47 0-2.139-0.079-4.259-0.235-6.358l0.017 0.28c0.067-1.255 0.106-2.724 0.106-4.202 0-22.618-9.001-43.134-23.616-58.161l0.019 0.019z" />
<glyph unicode="&#xe929;" glyph-name="ic_x" d="M632.471 448l366.231 365.026c21.288 15.866 34.926 40.97 34.926 69.261 0 47.572-38.565 86.136-86.136 86.136-28.29 0-53.395-13.638-69.098-34.699l-0.162-0.228-366.231-365.026-365.026 366.231c-14.126 10.54-31.928 16.876-51.21 16.876-47.572 0-86.136-38.565-86.136-86.136 0-19.282 6.335-37.084 17.038-51.438l-0.162 0.228 365.026-366.231-366.231-365.026c-21.288-15.866-34.926-40.97-34.926-69.261 0-47.572 38.565-86.136 86.136-86.136 28.29 0 53.395 13.638 69.098 34.699l0.162 0.228 366.231 365.026 365.026-366.231c15.866-21.288 40.97-34.926 69.261-34.926 47.572 0 86.136 38.565 86.136 86.136 0 28.29-13.638 53.395-34.699 69.098l-0.228 0.162z" />
<glyph unicode="&#xe92a;" glyph-name="ic_youtube_small" horiz-adv-x="1482" d="M0 340.48v214.739c5.722 58.428 8.433 116.856 14.456 175.285 15.661 139.144 92.16 186.428 171.671 204.8 27.475 5.977 60.185 10.48 93.552 12.554l1.921 0.095c163.84 12.047 327.981 12.047 492.122 12.047 22.834 0.46 49.75 0.722 76.728 0.722 153.333 0 304.688-8.468 453.623-24.961l-18.351 1.65c86.568-7.855 155.811-73.093 169.713-157.019l0.15-1.099c2.409-11.746 4.216-23.492 6.325-35.238 12.649-69.572 13.252-140.348 20.179-210.824v-180.706c-5.12-56.621-8.433-113.544-15.36-169.864s-12.951-107.821-50.899-150.588c-41.546-44.996-99.756-74.072-164.768-77.379l-0.578-0.023c-121.549-12.024-262.73-18.881-405.513-18.881-14.991 0-29.965 0.076-44.921 0.226l2.283-0.018c-190.042 0-380.085-2.711-569.525 16.565-130.711 13.553-202.692 82.522-218.353 212.631-7.228 58.127-8.734 116.856-14.456 175.285zM602.353 448c0-64.151 0-128.602 0-192.753 0-20.781 1.807-30.118 24.998-15.661q156.612 97.581 314.428 193.054c17.167 10.541 18.071 16.565 0 27.407q-158.72 98.184-316.838 196.066c-19.275 12.047-22.889 5.12-22.889-13.854 0.301-64.452 0.301-128.602 0.301-194.259z" />
<glyph unicode="&#xe92b;" glyph-name="ic_blind" horiz-adv-x="1575" d="M903.529 80.264c-33.916-10.871-72.945-17.242-113.429-17.468h-0.114c-212.201 1.191-383.884 172.979-384.903 385.107v0.098c0 5.722 0 11.144 0 16.866l-222.569 174.984c-14.758-13.553-30.118-26.504-44.574-40.358-47.586-46.984-93.365-97.581-137.939-144.565 0.561-3.835 1.508-7.284 2.82-10.548l-0.109 0.308 9.035-12.047c110.851-135.786 242.047-249.813 389.926-338.978l6.724-3.761c105.074-65.974 232.806-105.11 369.678-105.11 73.682 0 144.716 11.341 211.449 32.374l-4.977-1.353zM1570.936 463.962c-123.002 158.867-280.174 285.356-460.978 369.653l-7.653 3.204c-220.461 97.882-439.718 102.701-658.071-12.348l-15.059-8.734-164.141 127.699c-13.105 10.325-29.852 16.561-48.056 16.561-24.951 0-47.165-11.714-61.444-29.943l-0.129-0.17v-2.711c-9.991-13.011-16.011-29.526-16.011-47.447 0-3.553 0.237-7.051 0.695-10.479l-0.044 0.401c0-1.807 0-3.313 0-4.819 2.583-8.264 6.17-15.459 10.709-21.937l-0.168 0.253c5.353-8.948 11.971-16.526 19.715-22.763l0.162-0.127 120.471-93.365 997.496-775.529c7.12-5.35 15.445-9.577 24.45-12.211l0.547-0.137c2.945-0.825 6.43-1.464 10.005-1.79l0.235-0.017c2.301-0.214 4.976-0.336 7.68-0.336s5.379 0.122 8.020 0.361l-0.34-0.025c2.027-0.141 4.392-0.222 6.776-0.222s4.75 0.081 7.094 0.239l-0.317-0.017c4.202 1.238 7.602 2.468 10.912 3.866l-0.672-0.252c5.842 1.891 10.823 4.033 15.56 6.57l-0.502-0.245c7.835 4.889 14.501 10.789 20.063 17.623l0.116 0.147c10.325 13.105 16.561 29.852 16.561 48.056 0 24.951-11.714 47.165-29.943 61.444l-0.17 0.129-106.014 82.221c114.029 80.446 211.903 173.63 294.696 279.206l2.264 2.997c0.752 2.412 1.184 5.185 1.184 8.059 0 6.396-2.144 12.291-5.752 17.006l0.049-0.067zM1131.219 270.005l-134.626 104.809c9.041 23.564 14.278 50.823 14.278 79.306 0 47.505-14.568 91.608-39.479 128.084l0.505-0.783c-60.235 88.546-180.706 112.339-249.073 79.812 16.18-15.443 26.24-37.177 26.24-61.261 0-10.442-1.891-20.442-5.349-29.676l0.192 0.584-209.318 162.635c67.188 60.907 156.772 98.188 255.064 98.188 0.647 0 1.293-0.002 1.939-0.005h-0.1c211.446-0.854 382.586-172.205 383.096-383.65v-0.049c-0.191-65.032-16.208-126.28-44.397-180.152l1.028 2.157z" />
<glyph unicode="&#xe92c;" glyph-name="ic_check" horiz-adv-x="1331" d="M545.129-64c-40.334 0.026-76.847 16.363-103.306 42.769l-398.755 397.551c-24.752 26.158-39.97 61.56-39.97 100.516 0 80.839 65.533 146.372 146.372 146.372 38.806 0 74.085-15.101 100.281-39.748l-0.075 0.070 288.226-286.118 536.395 612.593c27.002 30.81 66.432 50.158 110.381 50.158 80.929 0 146.535-65.606 146.535-146.535 0-36.98-13.698-70.761-36.298-96.544l0.144 0.168-639.699-731.256c-25.909-29.451-63.15-48.401-104.838-49.987l-0.272-0.008z" />
<glyph unicode="&#xe92d;" glyph-name="ic_magnet" d="M574.645 214.588c-35.51-28.152-80.966-45.162-130.395-45.162-116.435 0-210.824 94.389-210.824 210.824 0 49.429 17.011 94.885 45.497 130.833l-0.335-0.438 216.546 216.847-153.6 153.6-216.847-216.847c-66.233-74.833-106.675-173.824-106.675-282.261 0-235.697 191.070-426.767 426.767-426.767 108.437 0 207.428 40.443 282.713 107.068l-0.452-0.392 216.847 216.847-153.6 153.6zM715.294 602.805l-148.179-24.696c-15.567-2.765-27.235-16.194-27.235-32.348 0-1.871 0.157-3.706 0.457-5.492l-0.027 0.193c2.482-15.543 15.792-27.278 31.844-27.278 1.944 0 3.848 0.172 5.697 0.502l-0.195-0.029 210.824 34.936c15.719 2.32 27.646 15.717 27.646 31.899 0 9.115-3.784 17.345-9.866 23.207l-72.292 72.292 148.781 27.708c15.195 2.935 26.514 16.129 26.514 31.966 0 2.223-0.223 4.394-0.648 6.492l0.035-0.209c-1.294 6.665-4.506 12.43-9.030 16.861l-0.005 0.005c-5.953 6.017-14.211 9.743-23.34 9.743-2.4 0-4.74-0.258-6.994-0.747l0.216 0.039-206.908-39.454c-15.206-2.925-26.538-16.125-26.538-31.971 0-9.054 3.699-17.244 9.669-23.141l0.003-0.003zM1014.362 392.885l-109.026 109.327c-5.896 5.896-14.042 9.543-23.040 9.543-17.995 0-32.583-14.588-32.583-32.583 0-8.998 3.647-17.144 9.543-23.040v0l109.327-109.026c5.842-5.893 13.94-9.541 22.889-9.541s17.048 3.648 22.887 9.539l0.002 0.002c5.968 5.807 9.67 13.916 9.67 22.889s-3.702 17.083-9.663 22.882l-0.007 0.007zM520.132 795.256c5.896-5.896 14.042-9.543 23.040-9.543 17.995 0 32.583 14.588 32.583 32.583 0 8.998-3.647 17.144-9.543 23.040v0l-109.327 109.026c-5.807 5.968-13.916 9.67-22.889 9.67s-17.083-3.702-22.882-9.663l-0.007-0.007c-5.893-5.842-9.541-13.94-9.541-22.889s3.648-17.048 9.539-22.887l0.002-0.002z" />
<glyph unicode="&#xe92e;" glyph-name="ic_pause" horiz-adv-x="808" d="M0 960h268.047v-1024h-268.047v1024zM540.311 960h268.047v-1024h-268.047v1024z" />
<glyph unicode="&#xe92f;" glyph-name="ic_stremio" horiz-adv-x="7866" d="M837.873 790.136q-28.009 13.553-64.151 30.118c-22.624 9.744-50.3 19.218-78.771 26.732l-4.353 0.977c-28.074 7.414-63.793 14.472-100.14 19.573l-5.272 0.606c-37.207 5.188-80.194 8.15-123.872 8.15-2.087 0-4.172-0.007-6.256-0.020l0.32 0.002c-0.161 0-0.352 0-0.544 0-54.215 0-107.483-4.051-159.519-11.867l5.861 0.724c-42.371-5.197-80.924-15.787-116.936-31.178l2.79 1.060c-28.605-12.112-52.506-30.502-70.798-53.545l-0.28-0.366c-15.973-20.249-25.621-46.135-25.621-74.274 0-0.782 0.007-1.563 0.022-2.341l-0.002 0.117c-0.006-0.407-0.010-0.888-0.010-1.369 0-24.225 8.774-46.402 23.317-63.525l-0.117 0.141c17.379-20.037 38.268-36.5 61.79-48.554l1.156-0.538c26.819-14.561 58.146-27.754 90.831-37.857l3.738-0.995c35.238-11.746 72.885-22.588 112.64-32.828s80.715-20.781 122.88-30.118 82.824-21.986 122.579-34.033c46.328-13.952 83.795-27.773 120.268-43.463l-7.327 2.804c35.425-14.928 65.954-32.493 93.967-53.258l-1.205 0.853c25.043-18.687 45.915-41.382 62.045-67.332l0.6-1.036c14.623-24.358 23.271-53.749 23.271-85.16 0-1.826-0.029-3.646-0.087-5.458l0.007 0.264c0.032-1.384 0.051-3.014 0.051-4.649 0-33.215-7.573-64.662-21.087-92.707l0.556 1.28c-14.602-27.645-33.684-50.958-56.542-69.869l-0.38-0.305c-23.761-19.665-51.113-36.184-80.722-48.329l-2.101-0.763c-28.649-12.002-62.535-22.403-97.615-29.512l-3.58-0.606c-31.306-7.054-69.27-12.812-107.951-16.049l-3.183-0.215c-38.551-3.012-76.198-4.518-113.242-4.518-2.867-0.022-6.255-0.035-9.647-0.035-78.304 0-155.018 6.805-229.584 19.857l7.927-1.149c-76.402 13.243-142.954 30.488-207.299 52.495l9.426-2.801v109.026c59-36.068 127.712-63.547 200.98-78.507l4.121-0.703c67.090-13.604 144.206-21.39 223.141-21.39 1.388 0 2.774 0.002 4.161 0.007l-0.214-0.001c1.71-0.009 3.731-0.015 5.754-0.015 52.773 0 104.701 3.618 155.55 10.618l-5.897-0.665c45.977 6.108 87.633 17.618 126.719 34.035l-3.237-1.206c32.133 12.5 59.223 31.847 80.503 56.371l0.212 0.25c18.75 22.313 30.141 51.355 30.141 83.057 0 0.871-0.009 1.74-0.026 2.607l0.002-0.13c0.009 0.532 0.014 1.16 0.014 1.789 0 26.243-8.718 50.449-23.415 69.881l0.211-0.291c-17.1 21.713-37.911 39.641-61.608 53.069l-1.037 0.54c-26.469 15.544-57.139 29.511-89.285 40.254l-3.477 1.008c-35.539 11.746-72.885 22.889-112.339 33.129s-80.113 20.179-122.278 30.118-83.125 19.878-123.482 30.72c-46.23 13.107-83.567 26.143-119.966 41.004l7.627-2.755c-35.44 14.215-65.997 31.108-94.104 51.208l1.341-0.912c-25.1 18.117-45.983 40.342-62.074 65.89l-0.571 0.971c-14.591 24.041-23.227 53.1-23.227 84.176 0 1.219 0.013 2.435 0.040 3.647l-0.003-0.181c-0.018 1.002-0.029 2.184-0.029 3.369 0 30.491 6.897 59.371 19.215 85.166l-0.513-1.194c12.782 25.961 29.897 47.89 50.63 65.732l0.269 0.226c21.804 18.515 46.84 34.184 73.967 45.938l1.93 0.745c26.41 11.926 57.494 22.29 89.768 29.499l3.295 0.618c28.926 6.814 64.062 12.455 99.88 15.732l3.122 0.231c35.84 3.313 70.776 4.819 105.713 4.819s73.788 0 107.821-4.819 66.861-7.831 98.485-13.252 62.645-11.746 92.762-18.974 60.235-14.758 90.353-22.889zM1592.922 853.685v-898.409h-87.040v898.409h-446.946v81.318h979.727v-81.318zM2899.727 873.261c-25.552 4.851-54.944 7.626-84.984 7.626-3.371 0-6.733-0.035-10.087-0.104l0.501 0.008c-1.031 0.007-2.25 0.011-3.469 0.011-52.336 0-103.001-7.15-151.073-20.526l3.955 0.939c-49.469-13.446-92.597-31.134-132.875-53.354l3.068 1.552c-42.347-23.797-78.93-49.725-112.535-78.987l0.799 0.681c-34.053-29.519-64.79-60.734-92.93-94.206l-1.037-1.267v-680.358h-90.353v979.727h90.353v-199.68c31.569 32.247 65.5 61.879 101.621 88.729l2.285 1.624c34.537 25.728 73.656 49.411 114.982 69.227l4.284 1.85c37.045 18.267 80.379 34.16 125.547 45.419l4.562 0.962c42.070 10.716 90.368 16.866 140.101 16.866 0.298 0 0.597 0 0.895-0.001h-0.046c16.565 0 30.118 0 44.875 0s25.6 0 36.744-2.711l30.118-3.915c9.939 0 20.179-3.012 30.118-5.12v-88.847c-11.746 4.216-31.021 10.24-55.416 13.854zM4109.553 6.475q-60.235-18.372-111.134-31.624c-34.334-8.734-68.066-15.962-101.496-21.384s-67.162-9.638-101.496-12.047-72.282-3.915-113.845-3.915c-3.606-0.052-7.864-0.082-12.128-0.082-88.381 0-173.774 12.792-254.429 36.625l6.34-1.607c-76.143 21.789-142.441 56.081-200.082 100.969l1.305-0.978c-52.872 42.191-95.397 95.028-124.726 155.456l-1.166 2.662c-27.986 58.88-44.329 127.943-44.329 200.824 0 2.563 0.020 5.121 0.060 7.675l-0.005-0.385c-0.021 1.684-0.033 3.673-0.033 5.665 0 72.327 15.651 140.999 43.751 202.814l-1.252-3.077c28.995 63.268 69.156 116.734 118.439 160.074l0.526 0.453c51.66 44.672 112.692 80.166 179.569 103.062l3.848 1.145c67.496 23.513 145.297 37.094 226.271 37.094 2.935 0 5.865-0.018 8.791-0.053l-0.445 0.004c3.352 0.055 7.307 0.087 11.27 0.087 80.812 0 158.553-13.147 231.202-37.418l-5.146 1.49c67.994-22.24 126.582-56.632 176.042-100.996l-0.456 0.403c46.608-43.851 83.4-97.574 107.101-157.878l1.022-2.95c23.681-60.814 37.403-131.211 37.403-204.812 0-2.855-0.021-5.704-0.062-8.549l0.005 0.43v-21.986h-1045.384c4.44-60.794 20.75-116.846 46.616-167.181l-1.138 2.437c26.458-50.328 62.705-92.16 106.516-124.286l1.004-0.702c48.753-34.999 105.893-62.073 167.556-77.845l3.512-0.762c66.8-17.487 143.488-27.527 222.522-27.527 5.206 0 10.401 0.044 15.586 0.13l-0.781-0.010c0.4-0.001 0.875-0.001 1.349-0.001 40.841 0 81.018 2.846 120.342 8.352l-4.534-0.52c44.621 5.744 83.148 13.026 120.888 22.309l-7.344-1.528c40.332 9.907 73.399 20.231 105.636 32.259l-6.549-2.141c28.246 10.076 52.496 21.759 75.26 35.64l-1.773-1.004zM4102.325 490.165c-3.433 52.269-15.399 100.855-34.529 145.651l1.098-2.894c-20.209 47.433-49.085 87.607-84.956 120.222l-0.277 0.249c-40.365 35.959-88.457 64.235-141.378 81.984l-2.885 0.839c-57.83 19.248-124.408 30.353-193.58 30.353-6.064 0-12.107-0.085-18.13-0.255l0.886 0.020c-3.954 0.094-8.612 0.147-13.283 0.147-67.203 0-131.818-11.077-192.12-31.505l4.217 1.24c-55.644-19.586-103.667-47.621-145.194-83.046l0.63 0.524c-38.569-33.165-70.2-73.166-93.251-118.279l-1.017-2.192c-21.563-41.701-36.872-90.245-43.161-141.577l-0.208-2.084zM4540.235 935.002v-150.588c21.082 18.071 44.273 37.045 69.873 57.525 24.902 20.561 52.68 39.698 82.062 56.331l2.87 1.494c28.675 15.906 62.015 30.034 96.903 40.602l3.69 0.961c33.879 10.897 72.854 17.179 113.296 17.179 1.040 0 2.079-0.004 3.118-0.012l-0.159 0.001c2.019 0.043 4.398 0.068 6.783 0.068 61.979 0 120.088-16.568 170.141-45.516l-1.639 0.875c53.634-33.113 95.874-80.096 122.355-135.999l0.826-1.939c28.31 26.221 58.956 51.132 91.155 74l2.812 1.896c28.689 20.38 61.38 39.553 95.712 55.828l3.977 1.696c29.896 14.21 65.024 26.706 101.549 35.643l3.863 0.799c33.256 8.040 71.436 12.651 110.694 12.651 0.367 0 0.733 0 1.1-0.001h-0.057c1.611 0.027 3.512 0.043 5.417 0.043 46.249 0 90.349-9.201 130.569-25.872l-2.263 0.831c40.001-16.263 74.086-39.427 102.347-68.313l0.053-0.054c27.653-28.543 49.809-62.598 64.64-100.335l0.715-2.065c14.682-36.669 23.198-79.173 23.198-123.667 0-0.782-0.003-1.564-0.008-2.344l0.001 0.12v-681.562h-90.353v658.974c0.139 3.786 0.218 8.233 0.218 12.698 0 34.374-4.697 67.652-13.485 99.225l0.617-2.596c-9.279 31.71-24.947 59.068-45.626 81.784l0.149-0.166c-21.425 22.535-47.987 39.979-77.823 50.474l-1.386 0.425c-32.231 11.326-69.393 17.869-108.083 17.869-2.873 0-5.738-0.036-8.595-0.108l0.423 0.008c-37.798-0.017-74.279-5.629-108.668-16.051l2.654 0.691c-38.534-11.395-71.783-25.221-103.167-42.069l2.875 1.41c-34.534-18.232-64.101-37.312-91.856-58.634l1.503 1.109c-26.733-20.635-50.453-42.349-72.238-65.881l-0.346-0.378c2.001-10.022 3.404-21.828 3.9-33.867l0.015-0.468c0-9.336 0-20.781 0-34.033v-670.419h-90.353v658.974c0.086 2.846 0.135 6.194 0.135 9.554 0 40.412-7.113 79.163-20.155 115.069l0.744-2.345c-21.859 60.886-71.357 107.010-132.955 123.767l-1.37 0.318c-29.71 8.42-63.831 13.262-99.082 13.262-0.955 0-1.908-0.004-2.861-0.011l0.146 0.001c-36.968-0.094-72.361-6.709-105.131-18.755l2.129 0.685c-36.107-13.229-67.204-28.861-96.162-47.524l1.894 1.143c-32.234-19.918-60.188-40.878-86.114-64.058l0.58 0.51c-24.386-21.806-46.554-44.832-66.91-69.413l-0.854-1.062v-720.113h-90.353v979.727zM6270.795-44.725v979.727h90.353v-979.727zM7865.525 444.386c0.106-3.855 0.166-8.392 0.166-12.943 0-78-17.723-151.86-49.362-217.773l1.309 3.027c-31.602-63.704-75.887-116.759-129.908-157.619l-1.104-0.8c-55.924-41.117-121.627-72.858-192.693-91.285l-3.975-0.875c-71.606-19.142-153.815-30.136-238.592-30.136-2.097 0-4.192 0.007-6.286 0.020l0.322-0.002c-1.769-0.012-3.86-0.018-5.954-0.018-85.305 0-168.042 10.993-246.871 31.641l6.764-1.505c-75.485 19.371-141.589 51.216-199.499 93.596l1.626-1.135c-55.662 41.405-100.294 94.52-130.783 155.9l-1.132 2.519c-30.33 62.887-48.053 136.747-48.053 214.746 0 4.551 0.060 9.089 0.18 13.611l-0.014-0.668c-0.022 1.803-0.034 3.932-0.034 6.064 0 54.644 8.157 107.383 23.321 157.065l-0.999-3.807c14.904 49.007 36.049 91.713 63.001 130.040l-0.958-1.437c26.974 38.055 58.86 70.42 95.204 97.062l1.173 0.82c36.411 26.814 78.008 50.099 122.387 67.921l3.806 1.349c43.064 17.142 93.694 31.28 146.144 40.045l4.444 0.614c48.999 8.247 105.45 12.96 163.002 12.96 1.565 0 3.13-0.003 4.694-0.010l-0.242 0.001c1.771 0.012 3.867 0.019 5.963 0.019 84.777 0 166.986-10.994 245.279-31.635l-6.687 1.498c75.068-19.286 140.783-51.139 198.221-93.556l-1.553 1.095c55.055-41.62 99.324-94.561 129.857-155.57l1.155-2.547c29.623-62.394 46.92-135.572 46.92-212.789 0-5.452-0.086-10.883-0.257-16.293l0.020 0.791zM7775.172 444.386c0.032 2.047 0.051 4.463 0.051 6.884 0 63.99-12.859 124.978-36.133 180.519l1.146-3.082c-22.795 53.774-56.95 98.85-99.682 133.84l-0.61 0.484c-46.476 37.218-101.676 65.751-161.892 82.095l-3.153 0.729c-68.983 18.077-148.178 28.457-229.798 28.457s-160.814-10.379-236.336-29.89l6.538 1.434c-63.906-17.189-119.597-45.82-167.493-83.847l0.942 0.722c-44.232-35.665-79.104-81.166-101.539-133.281l-0.861-2.248c-21.762-51.622-34.407-111.633-34.407-174.598 0-2.889 0.027-5.772 0.080-8.648l-0.006 0.432c-0.053-2.619-0.084-5.708-0.084-8.803 0-63.178 12.648-123.402 35.551-178.277l-1.133 3.061c23.3-53.779 57.823-98.831 100.856-133.82l0.64-0.504c46.962-37.203 102.659-65.737 163.351-82.090l3.199-0.734c65.117-17.852 139.885-28.109 217.048-28.109 4.589 0 9.17 0.036 13.741 0.109l-0.691-0.009c3.943-0.066 8.594-0.104 13.254-0.104 76.884 0 151.371 10.26 222.168 29.484l-5.926-1.371c63.344 17.216 118.52 45.73 165.966 83.533l-0.922-0.709c43.556 35.518 77.978 80.567 100.324 132.071l0.871 2.254c21.578 51.938 34.11 112.264 34.11 175.518 0 2.989-0.028 5.972-0.084 8.947l0.007-0.446z" />
<glyph unicode="&#xe930;" glyph-name="ic_back_android" d="M1024 511.849h-778.842l357.195 357.798-90.353 90.353-512-512 512-512 90.353 90.353-357.195 357.798h778.842z" />
<glyph unicode="&#xe931;" glyph-name="ic_back_ios" horiz-adv-x="607" d="M607.473 33.581l-412.009 414.419 412.009 414.419-97.28 97.581-510.193-512 510.193-512z" />
<glyph unicode="&#xe932;" glyph-name="ic_box_empty" d="M843.294 779.294v-662.588h-662.588v662.588h662.588zM1024 960h-1024v-1024h1024v1024z" />
<glyph unicode="&#xe933;" glyph-name="ic_cast_connected" horiz-adv-x="1248" d="M1247.774 667.859v163.539c0.014 0.705 0.022 1.536 0.022 2.369 0 25.286-7.419 48.839-20.2 68.602l0.3-0.496c-22.443 35.182-61.27 58.178-105.467 58.178-1.251 0-2.498-0.018-3.741-0.055l0.182 0.004h-995.991c-66.831-0.479-121.042-53.846-122.876-120.3l-0.004-0.17c0-37.346 0-75.294 0-111.736 0-15.661 0-30.118 0-46.984s6.927-25.6 26.202-25.901h82.522c1.616-0.279 3.476-0.439 5.374-0.439 7.919 0 15.189 2.778 20.889 7.414l-0.061-0.048c4.001 5.639 6.397 12.663 6.397 20.246 0 2.428-0.245 4.798-0.713 7.087l0.039-0.227c0 16.264 0 32.828 0 49.092v34.635c0 13.854 0 27.708 0 43.369 0.072 0.722 0.112 1.561 0.112 2.409s-0.041 1.687-0.121 2.515l0.008-0.105h969.788v-26.504c0-12.649 0-25.299 0-37.948s0-32.226 0-48.188v-400.264c0-10.541 0-21.082 0-31.624 0-17.769 0-35.238 0-52.706v-90.353c0-19.275 0-38.852 0-60.235h-364.725c-0.419 0.024-0.909 0.037-1.402 0.037-6.755 0-12.919-2.527-17.599-6.687l0.027 0.024c-3.974-4.647-6.392-10.728-6.392-17.373 0-0.669 0.025-1.333 0.073-1.99l-0.005 0.088c0-19.576 0-39.153 0-58.729v-30.118c0-18.673 6.325-24.998 25.299-24.998h112.038q131.313 0 263.228 0v0c0 0 0.001 0 0.001 0 69.528 0 125.892 56.364 125.892 125.892 0 0.212-0.001 0.423-0.002 0.635v-0.033c0 38.551 0 77.101 0 115.652zM570.127 233.864c-45.557 87.92-108.351 161.018-184.427 217.155l-1.701 1.198c-50.839 37.899-109.826 68.648-173.412 89.159l-4.282 1.194c-53.805 18.222-115.815 29.171-180.249 30.112l-0.457 0.005c-0.61 0.055-1.32 0.086-2.037 0.086-6.168 0-11.795-2.318-16.057-6.13l0.023 0.020c-3.774-4.152-6.085-9.694-6.085-15.775 0-0.596 0.022-1.186 0.066-1.771l-0.005 0.078q0-46.080 0-92.16c-0.071-0.651-0.112-1.406-0.112-2.17 0-11.643 9.439-21.082 21.082-21.082 0.569 0 1.134 0.023 1.692 0.067l-0.074-0.005c38.257-1.093 74.788-5.973 109.992-14.285l-3.677 0.732c34.559-8.541 64.648-19.581 93.113-33.439l-2.76 1.213c65.045-30.939 119.844-73.501 163.859-125.486l0.584-0.707c49.104-58.395 85.080-129.473 102.397-207.571l0.606-3.252c6.061-27.848 9.966-60.185 10.828-93.279l0.014-0.688c-0.045-0.508-0.070-1.099-0.070-1.696 0-11.311 9.169-20.48 20.48-20.48 0.981 0 1.945 0.069 2.889 0.202l-0.109-0.013h60.235c10.842 0 21.685 0 32.226 0h1.807c0.306-0.015 0.665-0.024 1.026-0.024 5.755 0 11.001 2.182 14.956 5.763l-0.019-0.017c4.123 4.402 6.655 10.338 6.655 16.865 0 0.424-0.011 0.846-0.032 1.264l0.002-0.059c-0.758 26.735-3.14 52.209-7.064 77.171l0.438-3.383c-9.612 74.923-31.586 142.854-63.924 204.494l1.581-3.308zM346.654 176.941c-30.246 43.515-67.507 79.817-110.518 108.088l-1.519 0.938c-58.496 38.891-129.786 63.029-206.538 65.638l-0.671 0.018c-0.987 0.115-2.13 0.18-3.288 0.18-6.563 0-12.635-2.099-17.583-5.662l0.089 0.061c-3.862-4.574-6.209-10.536-6.209-17.046 0-1.104 0.067-2.192 0.199-3.261l-0.013 0.128v-88.847c0-18.974 7.228-26.805 26.202-26.805 49.069-1.007 94.378-16.277 132.181-41.814l-0.868 0.553c51.412-33.037 89.775-82.534 107.934-140.931l0.489-1.827c6.315-19.746 10.33-42.533 11.132-66.136l0.011-0.424c-0.016-0.325-0.025-0.706-0.025-1.090 0-6.372 2.537-12.152 6.656-16.384l-0.005 0.005c4.272-3.926 9.995-6.332 16.28-6.332 0.206 0 0.412 0.003 0.617 0.008l-0.030-0.001h90.353c1.034-0.153 2.227-0.241 3.441-0.241 6.323 0 12.092 2.377 16.461 6.285l-0.024-0.021c3.189 4.048 5.116 9.221 5.116 14.844 0 1.891-0.218 3.732-0.63 5.498l0.032-0.163c-0.799 18.573-2.523 35.909-5.156 52.945l0.337-2.649c-9.375 62.263-32.141 117.876-65.302 165.74l0.851-1.298zM27.407 129.958c-1.56 0.351-3.351 0.551-5.19 0.551-5.663 0-10.881-1.906-15.047-5.112l0.058 0.043c-4.014-4.335-6.477-10.157-6.477-16.555 0-0.959 0.055-1.904 0.163-2.834l-0.011 0.113v-145.769c-0.040-0.518-0.062-1.122-0.062-1.731 0-6.313 2.428-12.060 6.402-16.356l-0.015 0.016c4.314-3.926 10.073-6.329 16.394-6.329 0.166 0 0.332 0.002 0.497 0.005h148.154c0.467-0.033 1.011-0.051 1.56-0.051 6.27 0 11.974 2.425 16.224 6.389l-0.014-0.013c3.517 4.198 5.653 9.658 5.653 15.616 0 1.184-0.084 2.349-0.248 3.488l0.015-0.13c-1.725 23.969-7.987 46.1-17.929 66.077l0.461-1.023c-27.317 58.394-83.713 99.091-150.041 103.575l-0.547 0.030zM998.099 715.144h-748.122v-70.475c220.551-66.016 391.154-235.128 458.004-449.963l1.29-4.813h288.828z" />
</font>
</defs>
</svg>
